<svg xmlns="http://www.w3.org/2000/svg" width="215.56" height="198.319" viewBox="0 0 215.56 198.319"><g transform="translate(0 1.332)"><path d="M185.924-1.332H29.636A29.668,29.668,0,0,0,0,28.3v95.646a29.67,29.67,0,0,0,29.53,29.636v43.4l62.375-43.4h94.019a29.67,29.67,0,0,0,29.636-29.636V28.3A29.668,29.668,0,0,0,185.924-1.332ZM202.93,123.949a17.025,17.025,0,0,1-17.005,17.005H87.942L42.161,172.812V140.954H29.636A17.025,17.025,0,0,1,12.63,123.949V28.3A17.023,17.023,0,0,1,29.636,11.3H185.924A17.023,17.023,0,0,1,202.93,28.3Zm0,0" transform="translate(0 0)" fill="#4c5ffb"/><path d="M171.293,131.172H271.466V143.8H171.293Zm0,0" transform="translate(-113.599 -87.875)" fill="#4c5ffb"/><path d="M171.293,211.172H271.466V223.8H171.293Zm0,0" transform="translate(-113.599 -140.93)" fill="#4c5ffb"/><path d="M171.293,291.172H271.466V303.8H171.293Zm0,0" transform="translate(-113.599 -193.985)" fill="#4c5ffb"/></g></svg>