<svg xmlns="http://www.w3.org/2000/svg" viewBox="0 0 428.54 424.69"><g id="BACKGROUND"><path d="M444.92,217.82A180.59,180.59,0,0,0,335.53,86.92c-2.85-1.15-5.73-2.21-8.64-3.21A179.52,179.52,0,0,0,65.44,305.05c.87,2.06,1.79,4.09,2.74,6.12a185.89,185.89,0,0,0,281,102.1,180.77,180.77,0,0,0,99.47-160A169,169,0,0,0,444.92,217.82ZM58.87,236a178.43,178.43,0,0,1,3.42-33.81,171.18,171.18,0,0,1,9.89-32.47A174.89,174.89,0,0,1,299,74.71q4,1.62,8,3.44A181.28,181.28,0,0,0,270.15,74a187.84,187.84,0,0,0-23.74-1.5c-102.64,0-185.85,83.21-185.85,185.85,0,.89,0,1.78,0,2.66A176.32,176.32,0,0,1,58.87,236Zm367.45,83.45a173.33,173.33,0,0,1-30.63,49.66,185.86,185.86,0,0,0-34-256.47q-1.49-1.59-3-3.15-4.9-5-10.21-9.62a176.17,176.17,0,0,1,40.7,30.86,173.4,173.4,0,0,1,37,56.48,171,171,0,0,1,9.49,32.46,191.61,191.61,0,0,1,3.11,33.63A172.88,172.88,0,0,1,426.32,319.43Z" transform="translate(-35.73 -30.97)" fill="#efeff5"/></g><g id="OBJECTS"><path d="M378.69,447a73.19,73.19,0,0,0,69.58-50.64c10.16-31.32,19.78-68.49,14.51-84.35-9.91-29.82-57,44.85-57,44.85S458.44,274.42,438,255.7s-65.78,20.53-63.82,101.19L365.8,447Z" transform="translate(-35.73 -30.97)" fill="#b2abf2"/><path d="M364.39,442.21c-4.08-14.93-14-60.45,10.95-76.72A26.49,26.49,0,0,0,387.62,343c-.14-10.39,1.49-22.73,8.94-28.84a11.9,11.9,0,0,0,4.15-6.68c1.32-6.2,4.44-17.2,10.74-23.53A7.23,7.23,0,0,1,423.72,289a69.91,69.91,0,0,1-2.83,21.41,12,12,0,0,0,.91,9.12c3.11,5.89,6.63,17.92-2.76,34.49a25.91,25.91,0,0,0-2.23,20c6.05,20.73,11.53,64.47-46.06,72.47A5.78,5.78,0,0,1,364.39,442.21Z" transform="translate(-35.73 -30.97)" fill="#d7d5f2"/><path d="M377.69,308.6q6.1-10.16,12-20.41c3.88-6.87,7.71-13.76,11.36-20.75s7.07-14.09,10.4-21.23,6.46-14.38,9.42-21.71a.25.25,0,0,1,.48.16A204,204,0,0,1,413.25,247c-3.1,7.3-6.58,14.43-10.25,21.45s-7.51,14-11.58,20.74-8.28,13.51-12.68,20.08a.62.62,0,0,1-1.05-.67Z" transform="translate(-35.73 -30.97)" fill="#8d83f2"/><path d="M421.27,225a.26.26,0,0,1-.44-.12c-.72-2.85-4.42-19.1,4.39-20.34C434.48,203.18,424.14,221.93,421.27,225Z" transform="translate(-35.73 -30.97)" fill="#8d83f2"/><path d="M417.69,234.38a.26.26,0,0,1-.25-.39c1.38-2.59,9.54-17.12,16.91-12.13C442.1,227.11,421.84,234.07,417.69,234.38Z" transform="translate(-35.73 -30.97)" fill="#8d83f2"/><path d="M417.46,234.32a.26.26,0,0,0,.4-.21c.11-2.94.3-19.61-8.58-19C400,215.82,414,232,417.46,234.32Z" transform="translate(-35.73 -30.97)" fill="#8d83f2"/><path d="M413.5,244.37a.26.26,0,0,0,.38-.26c-.24-2.93-2-19.5-10.74-17.82C394,228.05,409.81,242.45,413.5,244.37Z" transform="translate(-35.73 -30.97)" fill="#8d83f2"/><path d="M409.94,252.17a.26.26,0,0,0,.27-.37c-1.19-2.7-8.26-17.78-16-13.34C386.12,243.13,405.82,251.55,409.94,252.17Z" transform="translate(-35.73 -30.97)" fill="#8d83f2"/><path d="M405,263a.26.26,0,0,0,.27-.37c-1.19-2.69-8.26-17.77-16-13.33C381.19,254,400.89,262.37,405,263Z" transform="translate(-35.73 -30.97)" fill="#8d83f2"/><path d="M399.66,272.37a.26.26,0,0,0,.28-.37c-1.19-2.69-8.27-17.77-16-13.33C375.85,263.34,395.55,271.76,399.66,272.37Z" transform="translate(-35.73 -30.97)" fill="#8d83f2"/><path d="M393.88,283.23a.26.26,0,0,0,.27-.37c-1.19-2.7-8.26-17.78-16-13.34C370.07,274.19,389.76,282.61,393.88,283.23Z" transform="translate(-35.73 -30.97)" fill="#8d83f2"/><path d="M389.42,291a.27.27,0,0,0,.18-.43c-1.76-2.35-12.05-15.46-18.57-9.4C364.18,287.57,385.27,291.35,389.42,291Z" transform="translate(-35.73 -30.97)" fill="#8d83f2"/><path d="M382.72,301.5a.26.26,0,0,0,.18-.43c-1.76-2.35-12-15.46-18.56-9.4C357.49,298,378.57,301.82,382.72,301.5Z" transform="translate(-35.73 -30.97)" fill="#8d83f2"/><path d="M413.11,244.32a.26.26,0,0,1-.12-.45c2.12-2,14.37-13.33,19.84-6.3C438.57,245,417.15,245.31,413.11,244.32Z" transform="translate(-35.73 -30.97)" fill="#8d83f2"/><path d="M410.21,252.54a.26.26,0,0,1,0-.45c2.6-1.37,17.53-8.78,20.81-.5C434.48,260.29,413.82,254.63,410.21,252.54Z" transform="translate(-35.73 -30.97)" fill="#8d83f2"/><path d="M405.3,262.48a.26.26,0,0,1,.06-.45c2.73-1.11,18.32-7,20.76,1.56C428.68,272.59,408.68,264.91,405.3,262.48Z" transform="translate(-35.73 -30.97)" fill="#8d83f2"/><path d="M400,272.75a.26.26,0,0,1,.08-.45c2.76-1,18.53-6.4,20.69,2.24C423,283.61,403.27,275.29,400,272.75Z" transform="translate(-35.73 -30.97)" fill="#8d83f2"/><path d="M394.25,283.31a.26.26,0,0,1,.09-.45c2.8-.9,18.77-5.64,20.58,3.08C416.83,295.1,397.44,286,394.25,283.31Z" transform="translate(-35.73 -30.97)" fill="#8d83f2"/><path d="M389.59,291a.26.26,0,0,1,.2-.41c2.94-.16,19.6-.66,19.12,8.23C408.41,308.19,392,294.43,389.59,291Z" transform="translate(-35.73 -30.97)" fill="#8d83f2"/><path d="M383.47,301.49a.26.26,0,0,1,.21-.41c2.93-.16,19.59-.66,19.11,8.23C402.29,318.65,385.88,304.89,383.47,301.49Z" transform="translate(-35.73 -30.97)" fill="#8d83f2"/><path d="M156.16,393c-11.73-10.11-45.41-42.29-33.82-69.74a26.5,26.5,0,0,0-2.4-25.52c-5.93-8.53-11.48-19.68-8.72-28.91a11.85,11.85,0,0,0-.3-7.86c-2.36-5.88-5.93-16.74-4.25-25.51a7.24,7.24,0,0,1,13-2.68,69.58,69.58,0,0,1,9.62,19.34,12,12,0,0,0,5.86,7c5.86,3.14,15.52,11.15,17,30.14a25.86,25.86,0,0,0,9.32,17.8c16.6,13.81,45.61,47,2.33,85.84A5.8,5.8,0,0,1,156.16,393Z" transform="translate(-35.73 -30.97)" fill="#d7d5f2"/><path d="M186.64,447H125.92c-43.62,0-81.63-30.95-89.14-73.92-2-11.57-1.38-21.73,4.17-27.87,20.69-22.93,54.25,43.08,54.25,43.08s-28-73.39-1.68-98.22,65.43,43.42,57,95.14c0,0,5.18-69.3,33.45-81.95S208.73,431.37,186.64,447Z" transform="translate(-35.73 -30.97)" fill="#b2abf2"/><path d="M164.59,429.38q-6.61-9.86-12.69-20.07t-11.57-20.75c-3.68-7-7.16-14.15-10.26-21.45a204,204,0,0,1-8.1-22.34.24.24,0,0,1,.17-.31.26.26,0,0,1,.3.15q4.44,11,9.42,21.71c3.33,7.14,6.78,14.23,10.41,21.23s7.47,13.89,11.35,20.75,7.94,13.64,12,20.41a.62.62,0,0,1-1,.67Z" transform="translate(-35.73 -30.97)" fill="#8d83f2"/><path d="M122.05,345.06a.26.26,0,0,0,.44-.12c.72-2.85,4.43-19.1-4.39-20.34C108.84,323.29,119.18,342.05,122.05,345.06Z" transform="translate(-35.73 -30.97)" fill="#8d83f2"/><path d="M125.63,354.49a.26.26,0,0,0,.25-.39C124.5,351.51,116.34,337,109,342,101.22,347.22,121.48,354.18,125.63,354.49Z" transform="translate(-35.73 -30.97)" fill="#8d83f2"/><path d="M125.87,354.43a.26.26,0,0,1-.41-.21c-.1-2.94-.3-19.6,8.58-19C143.37,335.93,129.31,352.08,125.87,354.43Z" transform="translate(-35.73 -30.97)" fill="#8d83f2"/><path d="M129.82,364.48a.26.26,0,0,1-.38-.26c.24-2.93,2-19.5,10.74-17.82C149.37,348.16,133.51,362.56,129.82,364.48Z" transform="translate(-35.73 -30.97)" fill="#8d83f2"/><path d="M133.39,372.28a.27.27,0,0,1-.28-.37c1.19-2.69,8.27-17.78,16-13.34C157.2,363.24,137.5,371.66,133.39,372.28Z" transform="translate(-35.73 -30.97)" fill="#8d83f2"/><path d="M138.32,383.09a.26.26,0,0,1-.28-.36c1.19-2.7,8.27-17.78,16-13.34C162.13,374.06,142.43,382.48,138.32,383.09Z" transform="translate(-35.73 -30.97)" fill="#8d83f2"/><path d="M143.66,392.48a.25.25,0,0,1-.27-.36c1.18-2.7,8.26-17.78,16-13.34C167.47,383.45,147.78,391.87,143.66,392.48Z" transform="translate(-35.73 -30.97)" fill="#8d83f2"/><path d="M149.44,403.34a.26.26,0,0,1-.27-.37c1.19-2.7,8.26-17.78,16-13.34C173.26,394.3,153.56,402.72,149.44,403.34Z" transform="translate(-35.73 -30.97)" fill="#8d83f2"/><path d="M153.91,411.14a.26.26,0,0,1-.19-.42c1.76-2.36,12.05-15.47,18.57-9.41C179.14,407.68,158.06,411.46,153.91,411.14Z" transform="translate(-35.73 -30.97)" fill="#8d83f2"/><path d="M160.6,421.61a.26.26,0,0,1-.18-.42c1.76-2.36,12-15.47,18.57-9.41C185.84,418.15,164.75,421.93,160.6,421.61Z" transform="translate(-35.73 -30.97)" fill="#8d83f2"/><path d="M130.22,364.43a.26.26,0,0,0,.11-.45c-2.12-2-14.37-13.33-19.83-6.3C104.76,365.07,126.17,365.42,130.22,364.43Z" transform="translate(-35.73 -30.97)" fill="#8d83f2"/><path d="M133.11,372.66a.26.26,0,0,0,0-.46c-2.6-1.37-17.53-8.78-20.8-.5C108.84,380.4,129.5,374.74,133.11,372.66Z" transform="translate(-35.73 -30.97)" fill="#8d83f2"/><path d="M138,382.59a.26.26,0,0,0-.06-.45c-2.73-1.11-18.31-7-20.75,1.56C114.64,392.7,134.64,385,138,382.59Z" transform="translate(-35.73 -30.97)" fill="#8d83f2"/><path d="M143.36,392.86a.26.26,0,0,0-.08-.45c-2.76-1-18.53-6.4-20.69,2.24C120.32,403.72,140.06,395.4,143.36,392.86Z" transform="translate(-35.73 -30.97)" fill="#8d83f2"/><path d="M149.08,403.42a.25.25,0,0,0-.1-.44c-2.8-.91-18.77-5.65-20.58,3.07C126.5,415.21,145.88,406.09,149.08,403.42Z" transform="translate(-35.73 -30.97)" fill="#8d83f2"/><path d="M153.73,411.14a.26.26,0,0,0-.2-.41c-2.94-.16-19.59-.66-19.12,8.23C134.91,428.3,151.33,414.54,153.73,411.14Z" transform="translate(-35.73 -30.97)" fill="#8d83f2"/><path d="M159.85,421.6a.26.26,0,0,0-.21-.41c-2.93-.16-19.59-.66-19.11,8.23C141,438.76,157.44,425,159.85,421.6Z" transform="translate(-35.73 -30.97)" fill="#8d83f2"/><ellipse cx="214.07" cy="417.39" rx="191.87" ry="7.3" fill="#e9e8f2"/><path d="M260.49,132.11l-5,.08-.32-20.41h0a1.67,1.67,0,0,1,1.68,1.11l3.47,11.79Z" transform="translate(-35.73 -30.97)" fill="#011627"/><path d="M381.63,122.57l-14.66-15c-15.4-.52-55,6.72-55,6.72s-48.6,7.46-51.7,10.21l0,7.73c15.83,4.58,49.06,4.58,59,.46,15.28,3,43.51.69,59-1A5.38,5.38,0,0,0,381.63,122.57Z" transform="translate(-35.73 -30.97)" fill="#ed6a5a"/><path d="M383.15,140.25c-1.3,25-1.37,91.31-2.06,155.94-.63,60-1.79,118.59-4.95,141.36A10.67,10.67,0,0,1,365.8,447h-211c-5.43,0-10-4.43-10.41-10.18-1.56-19.42-3.47-65.14-5.13-116.07-2.2-67.73-4-144.68-4-181.28,0-5.91,4.36-10.78,9.9-11.08,37.07-2,144.26-7.87,228.45.14C379.27,129.09,383.46,134.27,383.15,140.25Z" transform="translate(-35.73 -30.97)" fill="#5148a3"/><path d="M381.09,296.19c-.63,60-1.79,118.59-4.95,141.36A10.67,10.67,0,0,1,365.8,447h-211c-5.43,0-10-4.43-10.41-10.18-1.56-19.42-3.47-65.14-5.13-116.07C190.12,350,290.14,386.64,381.09,296.19Z" transform="translate(-35.73 -30.97)" fill="#5e54b0"/><rect x="151.97" y="141.96" width="213.81" height="288.6" transform="translate(-30.19 -35.89) rotate(1.1)" fill="#dedcf2"/><path d="M363.91,385.15l-.21,11.12c-14.51,20.73-35.9,30.62-52.33,35.32l-19.7-.38a7,7,0,0,0,.48-.6C299.8,430.06,345.27,425.2,363.91,385.15Z" transform="translate(-35.73 -30.97)" fill="#cecbf2"/><path d="M330.65,405.88a6,6,0,0,1,2.51-1.64c4.63-3.11,9.35-6.1,14.23-8.83a6.34,6.34,0,0,1,3.07-.83,42.77,42.77,0,0,0,7.48-6.69c2-2.32,4.87-6.18,7.86-7.16V142.07H152v288.6H291c.48-.79,4.19-1.49,5.13-2,12-6.63,23-14.91,34.35-22.64Z" transform="translate(-35.73 -30.97)" fill="#f0f0f2"/><path d="M291,430.67s56-1.82,74.76-49.94c0,0-33.46,10.53-53.08,4.75C312.72,385.48,304.46,418.24,291,430.67Z" transform="translate(-35.73 -30.97)" fill="#dedcf2"/><path d="M198,219.4H169.5V190.9H198Zm-26.57-1.92h24.65V192.82H171.43Z" transform="translate(-35.73 -30.97)" fill="#b2abf2"/><path d="M194.57,181.93q-1.51,4.19-3.11,8.32l-3.18,8.29c-1.91,4.79-3.79,9.6-5.74,14.38a51.63,51.63,0,0,1-3.17-4.57c-1.41-2.25-2.77-4.54-4-7l-5.89,5.36c2.3,1.43,4.46,3,6.56,4.6a40.81,40.81,0,0,1,5.86,5.25l1.32,1.5,1-1.84c2.88-5.15,5.93-10.23,8.89-15.34l4.58-7.61q2.26-3.81,4.63-7.58Z" transform="translate(-35.73 -30.97)" fill="#fb3569"/><rect x="172.08" y="155.44" width="45.85" height="6.82" fill="#5148a3"/><rect x="172.08" y="166.28" width="94.95" height="6.82" fill="#d7d5f2"/><rect x="172.08" y="177.13" width="55.97" height="6.82" fill="#d7d5f2"/><path d="M198,275.09H169.5v-28.5H198Zm-26.57-1.92h24.65V248.51H171.43Z" transform="translate(-35.73 -30.97)" fill="#b2abf2"/><path d="M194.57,237.62q-1.51,4.19-3.11,8.32l-3.18,8.29c-1.91,4.79-3.79,9.6-5.74,14.38a50.35,50.35,0,0,1-3.17-4.58c-1.41-2.24-2.77-4.53-4-6.95l-5.89,5.36c2.3,1.43,4.46,3,6.56,4.6a40.81,40.81,0,0,1,5.86,5.25l1.32,1.49,1-1.83c2.88-5.15,5.93-10.23,8.89-15.34l4.58-7.61q2.26-3.81,4.63-7.58Z" transform="translate(-35.73 -30.97)" fill="#fb3569"/><rect x="172.08" y="211.13" width="45.85" height="6.82" fill="#5148a3"/><rect x="172.08" y="221.97" width="94.95" height="6.82" fill="#d7d5f2"/><rect x="172.08" y="232.82" width="55.97" height="6.82" fill="#d7d5f2"/><path d="M198,330.78H169.5v-28.5H198Zm-26.57-1.92h24.65V304.2H171.43Z" transform="translate(-35.73 -30.97)" fill="#b2abf2"/><rect x="172.08" y="266.82" width="45.85" height="6.82" fill="#5148a3"/><rect x="172.08" y="277.66" width="94.95" height="6.82" fill="#d7d5f2"/><rect x="172.08" y="288.5" width="55.97" height="6.82" fill="#d7d5f2"/><path d="M198,386.47H169.5V358H198Zm-26.57-1.92h24.65V359.89H171.43Z" transform="translate(-35.73 -30.97)" fill="#b2abf2"/><rect x="172.08" y="322.51" width="45.85" height="6.82" fill="#5148a3"/><rect x="172.08" y="333.35" width="94.95" height="6.82" fill="#d7d5f2"/><rect x="172.08" y="344.19" width="55.97" height="6.82" fill="#d7d5f2"/><path d="M328.73,123.76a2.48,2.48,0,0,0-1.93-2c-4.83-1-20.16-4-44.24-5,3.59-6.18,8.48-16.55,5.05-22.52-6.4-11.15-35.31-8.36-51.42-3.41-11.9,3.66-6.22,18.82-2.44,26.49-13.2.84-27.6,2.28-43.14,4.58a2.49,2.49,0,0,0-2.13,2.2c-.59,5.65-1.82,22.62,2.94,36a2.46,2.46,0,0,0,2.21,1.62c14.21.71,116.84,5.55,133.63-2.66a2.53,2.53,0,0,0,1.38-1.87C329.26,153,331.1,138.57,328.73,123.76Zm-69.83-29a8.52,8.52,0,1,1-8.52,8.51A8.52,8.52,0,0,1,258.9,94.79Z" transform="translate(-35.73 -30.97)" fill="#f9b800"/><path d="M194.63,128c-1.07,6.12-2.92,20.25,1.26,27.67a.64.64,0,0,0,.57.33c6.95.14,109,2,127.8-6a.65.65,0,0,0-.24-1.25l-119-2.43a.63.63,0,0,1-.51-.25A58,58,0,0,1,195.9,128,.65.65,0,0,0,194.63,128Z" transform="translate(-35.73 -30.97)" fill="#f9a200"/><path d="M266.44,88.9a20.82,20.82,0,0,1,9.54.73,15.14,15.14,0,0,1,4.59,2.31A10.86,10.86,0,0,1,285,101.7a16,16,0,0,1-1.32,5,23.2,23.2,0,0,1-5.6,7.68.63.63,0,0,1-.89,0,.65.65,0,0,1-.13-.66v0a73,73,0,0,0,3-8.25,18.71,18.71,0,0,0,.53-3.88,8.14,8.14,0,0,0-.7-3.36c-.89-2-2.9-3.65-5.34-4.92a51.62,51.62,0,0,0-8.12-3.09h0a.63.63,0,0,1,.08-1.23Z" transform="translate(-35.73 -30.97)" fill="#f9ca43"/><path d="M265.23,109a8.44,8.44,0,0,1-6.33,2.85A8.51,8.51,0,0,1,253.22,97a9.3,9.3,0,0,0-.47,3,9.55,9.55,0,0,0,9.54,9.54A9.24,9.24,0,0,0,265.23,109Z" transform="translate(-35.73 -30.97)" fill="#f9a200"/><path d="M250.38,122l66.6,3.13a.09.09,0,0,1,.09.1l-1.37,12.13a.09.09,0,0,1-.18,0l-2.14-9.14a.08.08,0,0,0-.08-.07Z" transform="translate(-35.73 -30.97)" fill="#f9ca43"/><path d="M375,45.91a10.07,10.07,0,0,0-19.51-5c-1.38,5.39-.7,14.13,4.69,15.51a6.68,6.68,0,0,0,2.29.14l1.91,9.13L372,64.1l-2.28-10.93C372.28,51.09,374.33,48.38,375,45.91Z" transform="translate(-35.73 -30.97)" fill="#f4c587"/><path d="M376.77,42.94a12.67,12.67,0,0,1-3.87,8.87,8.75,8.75,0,0,0-1.24,1.49,9.89,9.89,0,0,0-1.32,2.84A4,4,0,0,1,367.22,52a8.19,8.19,0,0,0-.33-3.3,1.28,1.28,0,0,1,.49-1.37,5.63,5.63,0,0,0,1.27-1.56,1.31,1.31,0,0,0-.4-1.75,3.23,3.23,0,0,0-2.8-.09c-1,2.15-3.19.67-3-2.07.1-1.37-.38-2-.87-2.18a1.41,1.41,0,0,0-1.46.27,12.62,12.62,0,0,1-4.32,2.28,8.2,8.2,0,0,1-3.58.32c-5.45-.83-5.17-6.86-4.09-7.2s3.6,1.31,3.87,1.5c-.8-.79-2.54-6.23,3.56-4.72S366,30.91,370.4,31c3.75,0,3.4,2.14,3.22,2.76a1,1,0,0,1-.06.17C377.06,33.21,377.05,38.62,376.77,42.94Z" transform="translate(-35.73 -30.97)" fill="#011627"/><path d="M376.77,42.94a12.67,12.67,0,0,1-3.87,8.87,8.75,8.75,0,0,0-1.24,1.49c-1.05-3.51-.89-10.11-1.28-13s1.68-5.18,3.24-6.6a1,1,0,0,1-.06.17C377.06,33.21,377.05,38.62,376.77,42.94Z" transform="translate(-35.73 -30.97)" fill="#011d33"/><path d="M362.43,56.57a7.27,7.27,0,0,0,4.45-2.74s-.14,4.67-4,5.07Z" transform="translate(-35.73 -30.97)" fill="#f2b35e"/><path d="M362.52,162.81c1.49,10.1,2.29,28.69-4.63,54.76l-7.43-3.12c-.54-2.95-3.6-27.56-5.19-44.82-.6-6.44-1-11.86-1-14.74,0-2.2,11.81-40.87,25.6-47.73l12.06,4,6,2S385.71,135.9,362.52,162.81Z" transform="translate(-35.73 -30.97)" fill="#ed6a5a"/><path d="M382,111.11c-.93,3.57-11,40.8-28.85,55.55-3.43,2.84-6,3.61-7.85,3-.6-6.44-1-11.86-1-14.74,0-2.2,11.81-40.87,25.6-47.73Z" transform="translate(-35.73 -30.97)" fill="#ed7566"/><path d="M357.93,217.55l-2.06,4.5-18.55-8.52h0a1.67,1.67,0,0,1,1.73-1l12.13,1.95Z" transform="translate(-35.73 -30.97)" fill="#011627"/><path d="M362.83,64.27c-.64-.68-2.66-.16-4.67.6a15.67,15.67,0,0,0-7.27,5.74L336.56,89.36a3.42,3.42,0,0,0,.27,4.45l13.6,13.93,4.33-4.79-9.65-10.41S368.82,70.59,362.83,64.27Z" transform="translate(-35.73 -30.97)" fill="#f4c587"/><path d="M343.12,79.81l9.6,5.68s10.4-10.5,11.52-17.43a3.68,3.68,0,0,0-3.62-4.33,8.73,8.73,0,0,0-3.88,1.1,18.29,18.29,0,0,0-4.28,3.82Z" transform="translate(-35.73 -30.97)" fill="#ed2458"/><path d="M388,113.09,353.8,108s-2.78-35.13.94-41,16.09-6.59,19.49-6.12c.53.08,2.08.42,3.7.79a5.88,5.88,0,0,1,4.58,5.82L382.22,87a13,13,0,0,0,.35,3.1Z" transform="translate(-35.73 -30.97)" fill="#fb3569"/><path d="M391.12,100.73a1.55,1.55,0,0,1-1.19,1.66c-5.51,1.31-26.85,6.17-34.35,4.64-.62-.12-1.28-1-1.84-2a25.72,25.72,0,0,1-1.6-3.63c5.82-2.29,28.79-6.2,28.79-6.2l-.18-.23c-6.18-7.87-9.48-17.57-11.07-23.76a7.29,7.29,0,0,1,5.08-8.83,10.68,10.68,0,0,1,2.61-.45,3.68,3.68,0,0,1,2,.39C387.28,67,390.47,94.32,391.12,100.73Z" transform="translate(-35.73 -30.97)" fill="#f4c587"/><path d="M382.1,102c-7.41,5-19.26,4.45-28.36,3a25.72,25.72,0,0,1-1.6-3.63c5.82-2.29,28.79-6.2,28.79-6.2l-.18-.23a11.06,11.06,0,0,1,1.87,1.42A3.62,3.62,0,0,1,382.1,102Z" transform="translate(-35.73 -30.97)" fill="#f4ce9c"/><path d="M388.64,81.08l-13.93,4.81s-11.57-18.14-1.82-23.47C372.89,62.42,384,55.25,388.64,81.08Z" transform="translate(-35.73 -30.97)" fill="#fb3569"/><path d="M369,70.09a27.67,27.67,0,0,0,5.72,15.8l.45-.16A41.16,41.16,0,0,0,380.75,95S368.17,91.59,369,70.09Z" transform="translate(-35.73 -30.97)" fill="#ed2458"/><path d="M356.14,109.89c-.08.79-.15,1.42-.21,1.86a.76.76,0,0,1-.73.71H322.58a.77.77,0,0,1-.72-.65q-.21-1-.36-2a70.85,70.85,0,0,1,.37-23.69.76.76,0,0,1,.67-.65c10.75-.76,24.69-.14,30.53.18l2.18.13a.77.77,0,0,1,.68.7A101.08,101.08,0,0,1,356.14,109.89Z" transform="translate(-35.73 -30.97)" fill="#d7d5f2"/><path d="M368,112.48h-22.8v-2.59h20.21a2.59,2.59,0,0,1,2.59,2.59Z" transform="translate(-35.73 -30.97)" fill="#d7d5f2"/><path d="M353.07,85.67c-3.68,5.76-16.87,24.6-31.57,24.16a70.85,70.85,0,0,1,.37-23.69.76.76,0,0,1,.67-.65C333.29,84.73,347.23,85.35,353.07,85.67Z" transform="translate(-35.73 -30.97)" fill="#dddcf2"/><path d="M83.87,322.33s-6,31.91,8.21,57.83c0,0-11.48,22.54-5.68,61.92h7.44S106.25,384.62,106.7,378l-7.37-55.64Z" transform="translate(-35.73 -30.97)" fill="#f0295d"/><path d="M106.51,379.58c-.78,5.43-3.69,19.86-6.53,33.48-1.28-21.37,3.43-31.59,3.43-31.59-8.06-7.34-16.21-31.11-20.75-46.18a92.44,92.44,0,0,1,1.21-13S95,365.83,106.51,379.58Z" transform="translate(-35.73 -30.97)" fill="#db1f51"/><path d="M86.4,442.08V447h20.41a1.66,1.66,0,0,0-1.13-1.66l-11.84-3.29Z" transform="translate(-35.73 -30.97)" fill="#011627"/><path d="M123.24,381.91c0,.46,0,.91,0,1.36a429.11,429.11,0,0,1-5.94,58.8h-7.81c-10.1-41.2-1.16-60.6-1.16-60.6-12.11-11-24.42-59.14-24.42-59.14h34.47c.3,1.2.58,2.41.83,3.64,0,.18.08.36.12.55C123,343.67,123.75,363.52,123.24,381.91Z" transform="translate(-35.73 -30.97)" fill="#fb3569"/><path d="M109.49,442.08V447H129.9a1.65,1.65,0,0,0-1.14-1.66l-11.83-3.29Z" transform="translate(-35.73 -30.97)" fill="#011627"/><path d="M123.24,381.91c-10.13-6.62-25.39-40.63-20.75-48.87,3.38-6,11.06-7.13,16.68-7.07,0,.18.08.36.12.55C123,343.67,123.75,363.52,123.24,381.91Z" transform="translate(-35.73 -30.97)" fill="#fb3f70"/><path d="M70.14,331.06s-3,6.83-1.74,8.5a.26.26,0,0,0,.35.06c.36-.19,1.07-.79,1.68-2.62,0,0-1.09,3.37-.35,4.85a.37.37,0,0,0,.48.15c.51-.25,1.46-1.17,1.66-4.63,0,0,.72,3,1.77,4a.35.35,0,0,0,.54-.11,9.25,9.25,0,0,0,.65-4.28s-.37-1.92,1-2.19a3,3,0,0,1,1,.3c.48.21,1.45.57,1.78.37s-1.77-4.4-4.45-6Z" transform="translate(-35.73 -30.97)" fill="#f4c587"/><path d="M159.44,259.07s1.21-4.59,2-5.15a9.33,9.33,0,0,1,2.56-.86,2.6,2.6,0,0,0,1.42-.84c1-1.16,2.36-2.54,3.13-2.25,1,.39-2.31,5.3-2.44,6s0,2.15.78,1.64.44-2.24,1.11-2.49,1.78,2.8-1.11,4.43l-3.48,1.88Z" transform="translate(-35.73 -30.97)" fill="#f4c587"/><path d="M163.91,261.6c-.44,3.8-20.22,30.69-24.14,31.42-2.34.44-13.54-4-22.15-7.61a12.61,12.61,0,0,1-1,3.9,23.89,23.89,0,0,1-1.5,2.9,4.48,4.48,0,0,0-.63,3l6,26.78a1.43,1.43,0,0,1-1.39,1.74H83.59a1.42,1.42,0,0,1-1.32-2l7.31-18.3A19,19,0,0,0,90,294c-.29-1.37-.61-2.94-.93-4.56-6.61,3.76-16.67,8.92-16.67,8.92l5.48,29s-7.79,5-9.59,3.63a.77.77,0,0,1-.18-.18C67,329.24,58.89,309.39,58,298.37h0c-.24-2.93,0-5.23,1.08-6.41.14-.16.31-.33.49-.51,4-3.82,16.7-10.57,25.12-14.83,1.77-.89,3.36-1.68,4.63-2.3a9.21,9.21,0,0,1,3.22-1.57c2.68-.8,7-1.35,14.16-1.26.4,0,1.67.25,3.49.62,5.87,1.17,17.37,3.74,23.05,5l3.33.75a24.35,24.35,0,0,1,2.84-2.87c5.18-4.8,15.73-13.74,18.77-16.3L159,258Z" transform="translate(-35.73 -30.97)" fill="#ed6a5a"/><path d="M88.79,274.57c-1.57,5-4.43,12-6.83,18.73l-2.26,1.21c2.32-6.62,5.19-13.63,6.92-18.87Z" transform="translate(-35.73 -30.97)" fill="#e64b39"/><path d="M117.62,285.41a12.61,12.61,0,0,1-1,3.9h0c-1.11-.44-5.13-7.3-5.13-7.3Z" transform="translate(-35.73 -30.97)" fill="#e64b39"/><path d="M71.77,295.08a2.36,2.36,0,0,1,.68,1.4,2.27,2.27,0,0,1-.31,1.52,2.42,2.42,0,0,1-.37-2.92Z" transform="translate(-35.73 -30.97)" fill="#e64b39"/><path d="M67.47,297.29a4.8,4.8,0,0,1,2.26,0,4.68,4.68,0,0,1,2,1,4.55,4.55,0,0,1-2.26,0A4.68,4.68,0,0,1,67.47,297.29Z" transform="translate(-35.73 -30.97)" fill="#e64b39"/><path d="M71.77,298.75a1.65,1.65,0,0,1-.1,1.26,1.59,1.59,0,0,1-1,.78,1.58,1.58,0,0,1,.1-1.25A1.63,1.63,0,0,1,71.77,298.75Z" transform="translate(-35.73 -30.97)" fill="#e64b39"/><path d="M136.29,278.33a1.88,1.88,0,1,1-1.35.23A1.9,1.9,0,0,1,136.29,278.33Z" transform="translate(-35.73 -30.97)" fill="#e64b39"/><path d="M136.91,278.33a2.24,2.24,0,0,1,.31,2.82,2.27,2.27,0,0,1-.31-2.82Z" transform="translate(-35.73 -30.97)" fill="#e64b39"/><path d="M137.22,277.77a1.7,1.7,0,0,1,2.07-1.19,1.58,1.58,0,0,1-.78,1A1.62,1.62,0,0,1,137.22,277.77Z" transform="translate(-35.73 -30.97)" fill="#e64b39"/><path d="M132.8,287.16c-2.16,1.17-18.08-6-21.89-9.39a4.06,4.06,0,0,1-.72-5.67c5.87,1.17,17.37,3.74,23.05,5C134.21,281.6,134.23,286.4,132.8,287.16Z" transform="translate(-35.73 -30.97)" fill="#ed7f72"/><path d="M84.69,276.61c.07,8.17-12.28,16.44-16.55,18-3.14,1.14-7.13-.78-8.57-3.16C63.55,287.62,76.27,280.87,84.69,276.61Z" transform="translate(-35.73 -30.97)" fill="#ed7f72"/><path d="M109.8,249.37a10.06,10.06,0,0,0-9.73-5.61,5.77,5.77,0,0,1-.42,1.18c-1.24,2.54-2.62,5-3.73,7.63a35.68,35.68,0,0,1-3.36,7,17,17,0,0,0,5.76,4.68v11.17h7.84v-9.33a6.68,6.68,0,0,0,2.22-.6C113.37,263.06,112.25,254.36,109.8,249.37Z" transform="translate(-35.73 -30.97)" fill="#f4c587"/><path d="M106.26,315.58s-12.31,7.63-17-.94c0,0-8.83,4.07-11-1.9a9.39,9.39,0,0,1-.46-3.38c.25-10.65,12.62-34.81,12.09-40.7-.22-2.51-.55-5.29-.67-7.89-.17-3.51,0-6.7,1.39-8.44,2.35-3,8.37-14.69,14.12-16.31s11.88,5.68,4.57,12.08a.59.59,0,0,1-.23.13.63.63,0,0,1-.22.07,4.64,4.64,0,0,0-4,5.12,4.55,4.55,0,0,1-.76,3.47s-.91,1.51-3.93-2.66a.47.47,0,0,0-.47-.21c-.67.09-2.18.48-2.06,2a2,2,0,0,0,1.12,1.45,13.79,13.79,0,0,1,6.37,8.51,16.27,16.27,0,0,1,.43,3.2,18.77,18.77,0,0,0,.52,3.3c1.52,6.82,5.94,19.66,7.64,26.35C116.06,307.72,115.75,316.54,106.26,315.58Z" transform="translate(-35.73 -30.97)" fill="#011627"/><path d="M99.86,275.44c-.65,13.4-5.2,32.86-12.39,36.6a12.11,12.11,0,0,1-9.14.7,9.39,9.39,0,0,1-.46-3.38c.25-10.65,12.62-34.81,12.09-40.7-.22-2.51-.55-5.29-.67-7.89a9.05,9.05,0,0,1,3.62-.75,6.76,6.76,0,0,1,5.56,3.31C99.7,265.16,100.13,269.75,99.86,275.44Z" transform="translate(-35.73 -30.97)" fill="#011d33"/><polygon points="179.57 239.3 177.3 221.27 179.64 220.17 183.21 218.51 313.16 202.18 315.92 224.13 185.97 240.46 179.57 239.3" fill="#fb4475"/><path d="M215.37,251.15l3.57-1.66,130-16.34,2.76,21.95L222.92,271.28a1.35,1.35,0,0,1,1.18-1.52c25.89-3.68,107.07-11.68,104.57-22.93C325.88,234.31,232.78,253.4,215.37,251.15Z" transform="translate(-35.73 -30.97)" fill="#fb3569"/><path d="M354.12,254.79l-2.76-21.95,19.71-2.48a1.31,1.31,0,0,1,.79.16,1.25,1.25,0,0,1,.64.95L375,250.89a1.28,1.28,0,0,1-1.12,1.42Z" transform="translate(-35.73 -30.97)" fill="#ff6e69"/><path d="M363.2,242.5c-.57-6,4-9.76,8.66-12a1.25,1.25,0,0,1,.64.95L375,250.89a1.28,1.28,0,0,1-1.12,1.42l-.27,0C369.25,251.8,363.87,249.66,363.2,242.5Z" transform="translate(-35.73 -30.97)" fill="#ff8b87"/><polygon points="152.55 232.55 161.01 228.68 162.21 228.13 183.21 218.51 177.74 224.77 184.59 229.49 179.12 235.75 185.97 240.46 166.5 236.94 161.94 236.11 152.81 234.46 152.55 232.55" fill="#f7929f"/><path d="M197,260.76l-.24-1.11,1.2-.55,21-9.61-5.47,6.25,14.17,3.8-12.79,7.19,6.85,4.71-19.48-3.53-4.55-.82a5.67,5.67,0,0,1-1.19-1s14.4,5.62,15.34-1.73S209.59,252.91,197,260.76Z" transform="translate(-35.73 -30.97)" fill="#f78392"/><polygon points="152.55 232.55 162.21 228.13 166.5 236.94 152.81 234.46 152.55 232.55" fill="#fb3569"/><path d="M345,232.22l3.54.7a.64.64,0,0,0,.47-.06l3.25-1.55a.75.75,0,0,1,1.08.58l2.94,23.34a.75.75,0,0,1-.9.83l-3.54-.7a.8.8,0,0,0-.48.06L348.1,257a.76.76,0,0,1-1.08-.59l-2.93-23.33A.76.76,0,0,1,345,232.22Z" transform="translate(-35.73 -30.97)" fill="#b2abf2"/><path d="M352.18,253.71l-2.41-19.18a.34.34,0,0,1,.16-.32l2-1.26a.33.33,0,0,1,.49.24l2.34,21a.33.33,0,0,1-.42.35l-2-.57A.35.35,0,0,1,352.18,253.71Z" transform="translate(-35.73 -30.97)" fill="#beb8f2"/><path d="M350.6,253.91l-2.41-19.18a.32.32,0,0,0-.23-.28l-2.29-.71a.33.33,0,0,0-.42.36L348.2,255a.33.33,0,0,0,.49.24l1.75-1A.32.32,0,0,0,350.6,253.91Z" transform="translate(-35.73 -30.97)" fill="#beb8f2"/><path d="M270.21,265.72c0-1.14-.08-3.38-1.14-3.35-1.41.05-.84,3-.84,3v.21l-2.08.27h0l-4.94.63a5.19,5.19,0,0,0,2.38.34h0l.51,1.57,6.09-.25,0-2.39Z" transform="translate(-35.73 -30.97)" fill="#f4c587"/><path d="M322.84,258.51c-.23-1.12-.53-3.34.52-3.49,1.4-.2,1.36,2.8,1.36,2.8l0,.2,2.09-.1h0l5-.32a5.2,5.2,0,0,1-2.28.82h0l-.23,1.63-6,.84-.44-2.35Z" transform="translate(-35.73 -30.97)" fill="#f4c587"/><path d="M328.53,333.93s-.06.09-.16.28c-1.47,2.4-12.31,20.12-24.17,35.73-6,7.91-12.28,15.28-17.73,19.85,5.29,8.73,13.21,25.57,16.91,52.28h-8.05c-.14-.21-.34-.55-.6-1-4.08-7.27-22.76-44.36-27.24-53.26a3.73,3.73,0,0,1-.16-.35,4.16,4.16,0,0,1,.21-3.48c4-7.54,19.17-35.36,29.23-47l14.09-1.33Z" transform="translate(-35.73 -30.97)" fill="#a9a1f0"/><path d="M304.2,369.94c-1.4,1.84-2.81,3.65-4.22,5.4-.56-13.09.08-31.59,6.16-39.29l4.72-.44C305.29,342.07,304.05,357.3,304.2,369.94Z" transform="translate(-35.73 -30.97)" fill="#948be8"/><path d="M297,439.3c-.15.8-1,1.38-2.24,1.76-4.08-7.27-22.76-44.36-27.24-53.26a3.73,3.73,0,0,1-.16-.35c3.31-.51,8.17-.59,12.14,3.38C285.47,396.83,297.72,435.27,297,439.3Z" transform="translate(-35.73 -30.97)" fill="#bbb5f2"/><path d="M303.39,442.08V447H283a1.65,1.65,0,0,1,1.14-1.66L296,442.08Z" transform="translate(-35.73 -30.97)" fill="#011627"/><path d="M343.19,442.08V447H322.78a1.67,1.67,0,0,1,1.14-1.66l11.84-3.29Z" transform="translate(-35.73 -30.97)" fill="#011627"/><path d="M342.48,442.07h-8.05c-.3-.46-.95-1.54-1.88-3.11-6-10.23-23.35-40.92-26.83-49.43a6.08,6.08,0,0,1-.22-1,144,144,0,0,1-1.3-18.62c-.15-12.64,1.09-27.87,6.66-34.33l17.51-1.4,1.44-.12s6.74,21.91-4.24,55.7C330.86,398.52,338.78,415.36,342.48,442.07Z" transform="translate(-35.73 -30.97)" fill="#b2abf2"/><path d="M332.55,439c-6-10.23-23.35-40.92-26.83-49.43a6.08,6.08,0,0,1-.22-1c2.39-2.78,6.28-5,11.52-.48C325.37,395.34,338,430.05,332.55,439Z" transform="translate(-35.73 -30.97)" fill="#bbb5f2"/><path d="M296.56,291.81s-1.64,7.68-2.69,12.42c-.46,2.12-.81,3.66-.84,3.66,0-.17-27-.57-31.49-1.23a.77.77,0,0,1-.67-.73c-.47-12-.05-29.56,2.52-37.4a.2.2,0,0,1,.18-.16l6.78-.24a.19.19,0,0,1,.2.19c-.05,6.49-.4,27.51.41,28.22h0C286.38,292.45,296.56,291.81,296.56,291.81Z" transform="translate(-35.73 -30.97)" fill="#ed5442"/><path d="M296.56,291.81s-1.64,7.68-2.69,12.42c-11.3,1.28-27.07-.49-27.07-2.23,0-1.43,2.12-3.65,4.16-5.46h0C286.38,292.45,296.56,291.81,296.56,291.81Z" transform="translate(-35.73 -30.97)" fill="#ed6a5a"/><path d="M329.69,334.46,296.37,337a.65.65,0,0,1-.7-.54c-.44-2.47-2.17-12.37-3.24-21.85-.9-8-1.32-15.73-.09-18.39s4-4.5,7-5.85c.35-.17.72-.32,1.08-.46a36.08,36.08,0,0,1,7.49-2h0l.46-.06.66-.09a15.06,15.06,0,0,1,1.81-.12c.64,0,2.72.19,4.67.38l2.6.26a1.56,1.56,0,0,1,1.4,1.38l2.6,22.24.07.56a12.6,12.6,0,0,0,.75,3l3.76,9.32,3.55,8.81A.67.67,0,0,1,329.69,334.46Z" transform="translate(-35.73 -30.97)" fill="#ede4e4"/><path d="M329.69,334.46,296.37,337a.65.65,0,0,1-.7-.54c-.44-2.47-2.17-12.37-3.24-21.85,4.64,5.76,17.54,18.71,34.28,10.16l3.55,8.81A.67.67,0,0,1,329.69,334.46Z" transform="translate(-35.73 -30.97)" fill="#e6d6d6"/><path d="M322.13,311.84c-13.65-2.19-9.69-22-9.69-22l3.09-1.83,2.6.26a1.56,1.56,0,0,1,1.4,1.38Z" transform="translate(-35.73 -30.97)" fill="#e6d6d6"/><path d="M347.54,287.65a1.11,1.11,0,0,1-.08.3,1.79,1.79,0,0,1-.94,1.05l-1,.49h0c-4.83,2.26-15.61,7.37-21.73,10.27l-1.73.82a6.36,6.36,0,0,1-7.15-1c-2.94-2.86-2.82-7.21-2.42-9.76a3.2,3.2,0,0,1,2.4-2.63c3.12-.79,10.07-2.1,21.43-2.1,0,0-11.47-18.48-13.3-24.46l2.3-.24,4.63-.47s13.81,14.83,17.59,26.91A1.76,1.76,0,0,1,347.54,287.65Z" transform="translate(-35.73 -30.97)" fill="#ed6a5a"/><path d="M347.54,287.65a1.11,1.11,0,0,1-.08.3,1.79,1.79,0,0,1-.94,1.05l-1,.49h0c-4.83,2.26-15.61,7.37-21.73,10.27l-1.73.82a6.36,6.36,0,0,1-7.15-1c-2.94-2.86-2.82-7.21-2.42-9.76a3.2,3.2,0,0,1,2.4-2.63c3.12-.79,10.07-2.1,21.43-2.1,0,0-11.47-18.48-13.3-24.46l2.3-.24C327,264.83,337.28,289.33,347.54,287.65Z" transform="translate(-35.73 -30.97)" fill="#ed5442"/><path d="M300.84,261.45a10.08,10.08,0,0,0-11.2,8.8c-.66,5.53,1.16,14.11,6.68,14.77a6.64,6.64,0,0,0,2.29-.16l1.79,5.1a3.93,3.93,0,0,0,7.4-2.59l-2.4-6.84c2.26-2.39,3.94-5.34,4.24-7.88A10.08,10.08,0,0,0,300.84,261.45Z" transform="translate(-35.73 -30.97)" fill="#f4c587"/><path d="M309.05,287.7a4.17,4.17,0,0,1-.2,1.27,5.21,5.21,0,0,1-2.45,2.86,3.64,3.64,0,0,1-1.24.46,5.46,5.46,0,0,1-1,.1,6.53,6.53,0,0,1-3.55-1.11,9.57,9.57,0,0,1-1.21-.94c.35-.17.72-.32,1.08-.46A6.45,6.45,0,0,0,302.2,291a4.27,4.27,0,0,0,5.34-1.75,3.32,3.32,0,0,0,.39-1.39h0l.46-.06Z" transform="translate(-35.73 -30.97)" fill="#ed6a5a"/><path d="M298.61,284.86a5.78,5.78,0,0,0,3.66-2.9s.69,3.83-2.66,5.62Z" transform="translate(-35.73 -30.97)" fill="#f2b35e"/><path d="M312.41,267.3c-.44,3.78-1.84,4-1,6.28.58,1.63-2.06,6.12-3.66,8.61-.66,1-1.14,1.72-1.14,1.72a14,14,0,0,1-5.49-4.5c-.65-1-1-2.86,0-3.49s2.35-1.68,2.42-2.76c.09-1.44-2.06-1.6-3.1-1.59a.4.4,0,0,1-.39-.51c.29-1.11.85-3.61,0-4.31-1.08-.92-4.14-1.54-7.52-.34s-6,2.29-7.17.09c-1.84-3.54.88-3.63,3.62-4.46,0,0-.3-2.56,1-3.67s10.73-3.74,17.74,4.21l.21.23S312.85,263.53,312.41,267.3Z" transform="translate(-35.73 -30.97)" fill="#011627"/><path d="M312.41,267.3c-.44,3.78-1.84,4-1,6.28.58,1.63-2.06,6.12-3.66,8.61-4.23-2.31-.62-11.7-.62-11.7-2.21-2.68-.58-6.12.57-7.91l.21.23S312.85,263.53,312.41,267.3Z" transform="translate(-35.73 -30.97)" fill="#011d33"/></g></svg>