<svg xmlns="http://www.w3.org/2000/svg" xmlns:xlink="http://www.w3.org/1999/xlink" width="14.152" height="13.517" viewBox="0 0 14.152 13.517">
  <defs>
    <linearGradient id="linear-gradient" x1="0.463" y1="0.914" x2="0.463" y2="-0.169" gradientUnits="objectBoundingBox">
      <stop offset="0" stop-color="#ffcf95"/>
      <stop offset="0.427" stop-color="#ffc954"/>
      <stop offset="1" stop-color="#ffc200"/>
    </linearGradient>
    <linearGradient id="linear-gradient-2" x1="1.217" y1="1.457" x2="-0.633" y2="1.457" gradientUnits="objectBoundingBox">
      <stop offset="0" stop-color="#ffc200" stop-opacity="0"/>
      <stop offset="0.203" stop-color="#fb0" stop-opacity="0.204"/>
      <stop offset="0.499" stop-color="#ffa700" stop-opacity="0.498"/>
      <stop offset="0.852" stop-color="#f80" stop-opacity="0.851"/>
      <stop offset="1" stop-color="#ff7800"/>
    </linearGradient>
    <linearGradient id="linear-gradient-3" x1="0.518" y1="-0.407" x2="0.353" y2="1.223" xlink:href="#linear-gradient-2"/>
    <linearGradient id="linear-gradient-4" x1="-0.462" y1="-1.03" x2="0.591" y2="-0.306" xlink:href="#linear-gradient-2"/>
    <linearGradient id="linear-gradient-5" x1="-0.151" y1="-0.116" x2="0.585" y2="-0.571" xlink:href="#linear-gradient-2"/>
    <linearGradient id="linear-gradient-6" x1="0.61" y1="2.287" x2="0.415" y2="1.017" xlink:href="#linear-gradient-2"/>
    <linearGradient id="linear-gradient-7" x1="1.34" y1="1.58" x2="-0.083" y2="0.368" xlink:href="#linear-gradient-2"/>
  </defs>
  <g id="_001-favourites" data-name="001-favourites" transform="translate(0 -11.501)">
    <path id="Path_2804" data-name="Path 2804" d="M7.6,11.824l1.872,3.793,4.186.608a.581.581,0,0,1,.322.991l-3.029,2.952.715,4.169a.581.581,0,0,1-.843.612L7.076,22.981,3.332,24.949a.581.581,0,0,1-.843-.612L3.2,20.168.176,17.216A.581.581,0,0,1,.5,16.226l4.186-.608,1.872-3.793A.581.581,0,0,1,7.6,11.824Z" transform="translate(0 0)" fill="url(#linear-gradient)"/>
    <path id="Path_2805" data-name="Path 2805" d="M258.394,15.618l-1.872-3.793A.574.574,0,0,0,256,11.5v7.181Z" transform="translate(-248.925 0)" fill="url(#linear-gradient-2)"/>
    <path id="Path_2806" data-name="Path 2806" d="M259.871,200.56l3.029-2.952a.573.573,0,0,0,.149-.587L256,199.073Z" transform="translate(-248.924 -180.391)" fill="url(#linear-gradient-3)"/>
    <path id="Path_2807" data-name="Path 2807" d="M260.357,277.511,256,271.289v4.3l3.744,1.968A.574.574,0,0,0,260.357,277.511Z" transform="translate(-248.924 -252.607)" fill="url(#linear-gradient-4)"/>
    <path id="Path_2808" data-name="Path 2808" d="M94.352,271.289l-3.871,1.487-.715,4.169a.574.574,0,0,0,.229.567Z" transform="translate(-87.276 -252.607)" fill="url(#linear-gradient-5)"/>
    <path id="Path_2809" data-name="Path 2809" d="M.968,161.44l7.049,2.053-2.393-3.064-4.186.608a.574.574,0,0,0-.471.4Z" transform="translate(-0.941 -144.812)" fill="url(#linear-gradient-6)"/>
    <path id="Path_2810" data-name="Path 2810" d="M3.21,200.561.182,197.608a.573.573,0,0,1-.149-.587l7.049,2.053Z" transform="translate(-0.006 -180.392)" fill="url(#linear-gradient-7)"/>
  </g>
</svg>
