<svg xmlns="http://www.w3.org/2000/svg" width="227.756" height="222.3" viewBox="0 0 227.756 222.3"><g transform="translate(0 -13.955)"><path d="M208.647,33.758c-26.309-27.462-69.73-26.1-94.779,2.449C88.817,7.662,45.4,6.295,19.089,33.758-7.073,60.8-6.182,105.333,20.774,131.435c-13.791,13.671-5.89,38.238,12.881,40.633-1.124,13.341,9.816,25.576,22.756,25.349.793,14.687,15,25.2,28.611,21.318,4.467,17.5,25.941,23.476,38.26,10.6,7-7.219,12.561-11.771,12.916-22.7,11.561-.334,21.564-10.858,21.74-22.851,11.672-.187,21.841-10.746,22.021-22.857,12.109-.191,22.608-11.535,22.044-24.34l6.643-6.894C234.127,103.238,234.127,60.2,208.647,33.758ZM30.79,142.474,37.03,136a8.093,8.093,0,0,1,5.848-2.511c7.263-.05,11.055,9.271,5.847,14.65l-6.239,6.476c-8.076,7.717-19.132-3.753-11.7-12.14Zm17.4,31.213a8.7,8.7,0,0,1,2.423-6.07l6.243-6.479a8.066,8.066,0,0,1,5.845-2.511c7.325-.013,11.038,9.286,5.848,14.654l-5.505,5.714a8.268,8.268,0,0,1-14.853-5.308Zm25.178,28.165a8.858,8.858,0,0,1,0-12.139L78.871,184a8.177,8.177,0,0,1,12.43-.762,8.827,8.827,0,0,1,0,12.14l-6.24,6.477A8.065,8.065,0,0,1,73.366,201.852Zm45.83,10.287-6.239,6.476a8.058,8.058,0,0,1-11.7,0,8.858,8.858,0,0,1,0-12.14L107.5,200a8.067,8.067,0,0,1,11.7,0A8.859,8.859,0,0,1,119.2,212.139Zm65.79-68.859a8.1,8.1,0,0,1-11.7,0L140.8,109.552,130.47,120.27,162.965,154a8.827,8.827,0,0,1,0,12.14,8.066,8.066,0,0,1-11.7,0l-31.944-33.156-.551-.572-10.326,10.718.551.572,31.944,33.156a8.827,8.827,0,0,1,0,12.14,8.067,8.067,0,0,1-11.7,0l-.006.007a22.3,22.3,0,0,0-21.714-5.881c-2.384-10.112-12.177-17.767-22.025-17.544-.478-10.884-9.342-20.716-19.819-21.89,1.382-18.673-18.376-31.533-33.969-22.334C10,101.218,8.659,65.872,29.416,44.475,50.053,22.9,84.153,24.333,103.543,46.924L85.491,65.661,99.956,80.675a32.2,32.2,0,0,0,41,4.762l44.032,45.7A8.828,8.828,0,0,1,184.986,143.28Zm13.335-24.312-2.225,2.309q-.38-.435-.784-.854L141.53,64.6l-5.163,5.359a17.992,17.992,0,0,1-26.086,0l-4.139-4.3,20.411-21.186c49.582-47.367,117.394,23.062,71.768,74.493Z" transform="translate(0 0)" fill="#4c5ffb"/></g></svg>