<svg xmlns="http://www.w3.org/2000/svg" width="47.015" height="52.238" viewBox="0 0 47.015 52.238"><path d="M48.532,4.612A2.612,2.612,0,0,0,45.92,2H11.094A2.612,2.612,0,0,0,8.483,4.612v.871H5V54.239H44.539l7.475-7.475V5.483H48.532ZM45.92,3.741a.871.871,0,0,1,.871.871v.871H45.049V4.612a2.583,2.583,0,0,0-.16-.871Zm-4.353,0h.871a.871.871,0,0,1,.871.871v.871H41.567V4.612a2.583,2.583,0,0,0-.16-.871Zm-3.483,0h.871a.871.871,0,0,1,.871.871v.871H38.084V4.612a2.582,2.582,0,0,0-.16-.871Zm-3.483,0h.871a.871.871,0,0,1,.871.871v.871H34.6V4.612a2.582,2.582,0,0,0-.16-.871Zm-3.483,0h.871a.871.871,0,0,1,.871.871v.871H31.119V4.612a2.582,2.582,0,0,0-.16-.871Zm-3.483,0h.871a.871.871,0,0,1,.871.871v.871H27.637V4.612a2.582,2.582,0,0,0-.16-.871Zm-3.483,0h.871a.871.871,0,0,1,.871.871v.871H24.154V4.612a2.582,2.582,0,0,0-.16-.871Zm-3.483,0h.871a.871.871,0,0,1,.871.871v.871H20.672V4.612a2.582,2.582,0,0,0-.16-.871Zm-3.483,0h.871a.871.871,0,0,1,.871.871v.871H17.189V4.612a2.582,2.582,0,0,0-.16-.871Zm-3.483,0h.871a.871.871,0,0,1,.871.871v.871H13.706V4.612a2.6,2.6,0,0,0-.153-.871Zm-3.483.871a.871.871,0,1,1,1.741,0v.871H10.224ZM45.049,51.266V47.273h3.993Zm5.224-5.734H44.179a.871.871,0,0,0-.871.871V52.5H6.741V12.448H50.273Zm0-38.308v3.483H6.741V7.224H8.483V8.965h1.741V7.224h1.741V8.965h1.741V7.224h1.741V8.965h1.741V7.224H18.93V8.965h1.741V7.224h1.741V8.965h1.741V7.224H25.9V8.965h1.741V7.224h1.741V8.965h1.741V7.224H32.86V8.965H34.6V7.224h1.741V8.965h1.741V7.224h1.741V8.965h1.741V7.224h1.741V8.965h1.741V7.224h1.741V8.965h1.741V7.224Z" transform="translate(-5 -2)" fill="#5568fe"/><ellipse cx="1.776" cy="1.776" rx="1.776" ry="1.776" transform="translate(4.33 12.269)" fill="#5568fe"/><ellipse cx="1.776" cy="1.776" rx="1.776" ry="1.776" transform="translate(13.208 12.269)" fill="#5568fe"/><ellipse cx="1.776" cy="1.776" rx="1.776" ry="1.776" transform="translate(21.732 12.269)" fill="#5568fe"/><ellipse cx="1.776" cy="1.776" rx="1.776" ry="1.776" transform="translate(30.255 12.269)" fill="#5568fe"/><ellipse cx="1.776" cy="1.776" rx="1.776" ry="1.776" transform="translate(39.133 12.269)" fill="#5568fe"/><path d="M13,23.871v6.965a.871.871,0,1,0,1.741,0V28.224h2.612v2.612a.871.871,0,0,0,1.741,0V23.871a.871.871,0,0,0-1.741,0v2.612H14.741V23.871a.871.871,0,1,0-1.741,0Z" transform="translate(-6.035 -4.717)" fill="#5568fe"/><path d="M22,23.871v6.965a.871.871,0,0,0,.871.871h4.353a.871.871,0,0,0,.871-.871V23.871A.871.871,0,0,0,27.224,23H22.871A.871.871,0,0,0,22,23.871Zm1.741.871h2.612v5.224H23.741Z" transform="translate(-7.199 -4.717)" fill="#5568fe"/><path d="M31.871,23a.871.871,0,0,0-.871.871v6.965a.871.871,0,1,0,1.741,0V24.741h.281l1.522,3.806a.871.871,0,0,0,1.618,0l1.522-3.806h.281v6.094a.871.871,0,1,0,1.741,0V23.871A.871.871,0,0,0,38.836,23H37.094a.871.871,0,0,0-.809.548l-.932,2.332-.932-2.332A.871.871,0,0,0,33.612,23Z" transform="translate(-8.363 -4.717)" fill="#5568fe"/><path d="M30.224,43.706a.871.871,0,0,0,.871-.871V35.871A.871.871,0,0,0,30.224,35H25.871a.871.871,0,0,0-.871.871v6.965a.871.871,0,0,0,.871.871Zm-3.483-6.965h2.612v5.224H26.741Z" transform="translate(-7.587 -6.269)" fill="#5568fe"/><path d="M15.554,43.7a.883.883,0,0,0,.871-.546l.929-2.334.932,2.332a.871.871,0,0,0,.809.548h.058a.871.871,0,0,0,.784-.658l1.741-6.965a.871.871,0,1,0-1.689-.421L18.9,40.012,18.16,38.16a.871.871,0,0,0-1.618,0L15.8,40.012l-1.088-4.353a.871.871,0,0,0-1.689.421l1.741,6.965A.871.871,0,0,0,15.554,43.7Z" transform="translate(-6.035 -6.266)" fill="#5568fe"/><path d="M43,23.871v6.965a.871.871,0,0,0,.871.871h4.353a.871.871,0,0,0,0-1.741H44.741V28.224h3.483a.871.871,0,0,0,.871-.871V23.871A.871.871,0,0,0,48.224,23H43.871A.871.871,0,0,0,43,23.871Zm1.741.871h2.612v1.741H44.741Z" transform="translate(-9.916 -4.717)" fill="#5568fe"/><path d="M40.094,39.353V35.871A.871.871,0,0,0,39.224,35H34.871a.871.871,0,0,0-.871.871v6.965a.871.871,0,0,0,1.741,0V40.8l1.915,2.554a.871.871,0,0,0,.7.348h1.741a.871.871,0,0,0,0-1.741H38.789l-1.306-1.741h1.741A.871.871,0,0,0,40.094,39.353Zm-1.741-.871H35.741V36.741h2.612Z" transform="translate(-8.751 -6.269)" fill="#5568fe"/><path d="M43.871,35a.871.871,0,0,0-.871.871v6.965a.871.871,0,1,0,1.741,0V41.165l2.938,2.351a.871.871,0,0,0,1.088-1.36l-3.5-2.8,3.5-2.8a.871.871,0,1,0-1.088-1.36l-2.938,2.351V35.871A.871.871,0,0,0,43.871,35Z" transform="translate(-9.916 -6.269)" fill="#5568fe"/><path d="M46.7,47a206.18,206.18,0,0,0-35,3.5.871.871,0,0,0,.174,1.724.832.832,0,0,0,.174-.017A204.4,204.4,0,0,1,46.7,48.741.871.871,0,0,0,46.7,47Z" transform="translate(-5.776 -7.821)" fill="#5568fe"/></svg>