<svg xmlns="http://www.w3.org/2000/svg" width="23.121" height="26.424" viewBox="0 0 23.121 26.424"><g transform="translate(-32)"><path d="M97.652,0A1.656,1.656,0,0,0,96,1.652V24.773a1.656,1.656,0,0,0,1.652,1.652h16.515a1.656,1.656,0,0,0,1.652-1.652V6.606L109.212,0Z" transform="translate(-60.697)" fill="#e2e5e7"/><path d="M353.652,6.606h4.955L352,0V4.955A1.656,1.656,0,0,0,353.652,6.606Z" transform="translate(-303.485)" fill="#b0b7bd"/><path d="M388.954,132.955,384,128h4.954Z" transform="translate(-333.833 -121.394)" fill="#cad1d8"/><path d="M51.818,249.083a.828.828,0,0,1-.826.826H32.826a.828.828,0,0,1-.826-.826v-8.258a.828.828,0,0,1,.826-.826H50.992a.828.828,0,0,1,.826.826Z" transform="translate(0 -227.614)" fill="#f15642"/><g transform="translate(35.599 15.19)"><path d="M101.744,294.776a.454.454,0,0,1,.448-.456h1.525a1.651,1.651,0,0,1,0,3.3h-1.1v.872a.414.414,0,0,1-.423.455.445.445,0,0,1-.448-.455Zm.871.376V296.8h1.1a.823.823,0,0,0,0-1.645Z" transform="translate(-101.744 -294.32)" fill="#fff"/><path d="M188.28,300.041a.413.413,0,0,1-.456-.409v-3.751a.449.449,0,0,1,.456-.41h1.512c3.017,0,2.951,4.569.059,4.569Zm.416-3.763v2.958h1.1c1.783,0,1.862-2.958,0-2.958Z" transform="translate(-183.381 -295.413)" fill="#fff"/><path d="M288,296.316v1.05h1.684a.511.511,0,0,1,.476.468.459.459,0,0,1-.476.4H288v1.386a.391.391,0,0,1-.4.409.419.419,0,0,1-.468-.409v-3.751a.417.417,0,0,1,.468-.41h2.318a.412.412,0,0,1,.462.41.456.456,0,0,1-.462.449H288Z" transform="translate(-277.568 -295.397)" fill="#fff"/></g><path d="M111.689,416.826H96v.826h15.689a.828.828,0,0,0,.826-.826V416A.828.828,0,0,1,111.689,416.826Z" transform="translate(-60.697 -394.53)" fill="#cad1d8"/></g></svg>