<svg xmlns="http://www.w3.org/2000/svg" width="113.685" height="115.199" viewBox="0 0 113.685 115.199"><path d="M341.749,249.185a23.542,23.542,0,1,0-23.542-23.542A23.566,23.566,0,0,0,341.749,249.185Z" transform="translate(-278.774 -176.575)" fill="#fff"/><g transform="translate(0 0)"><path d="M232.527,122.716a16.419,16.419,0,0,0-16.419,16.419v18.339a3.159,3.159,0,0,0,3.157,3.158h66.561a3.159,3.159,0,0,0,3.157-3.158V139.589a10.169,10.169,0,0,0,.733-1.541l12.883-34.1a10.122,10.122,0,0,0,.657-3.574V62.1a10.1,10.1,0,1,0-20.208,0V98.529l-9.131,24.187Z" transform="translate(-189.57 -45.432)" fill="#fff"/><path d="M9.127,22.494h7.452a3.143,3.143,0,0,0,3.12-2.678c.429-2.8,1.3-4.875,2.589-6.126a6.933,6.933,0,0,1,5.077-1.73,7.287,7.287,0,0,1,5.393,1.945,6.529,6.529,0,0,1,1.958,4.989,5.812,5.812,0,0,1-.695,2.779c-.24.442-1.175,1.806-4.736,4.825a26.461,26.461,0,0,0-6.845,8.058c-1.326,2.665-1.97,6.542-1.97,11.822h0a3.159,3.159,0,0,0,3.158,3.158h6.732a3.159,3.159,0,0,0,3.158-3.158h0c0-4.08.493-5.747.783-6.378.227-.505,1.175-2,4.926-5.1C42.71,32,45.059,29.365,46.4,26.839A17.783,17.783,0,0,0,48.469,18.4,16.924,16.924,0,0,0,42.407,5.065C38.517,1.705,33.439,0,27.314,0A21.443,21.443,0,0,0,12.663,5.166,20.225,20.225,0,0,0,6.007,19.084h0A3.129,3.129,0,0,0,9.127,22.494Z" transform="translate(-5.992 0)" fill="#fff"/><path d="M130.385,443.434a3.158,3.158,0,0,0,3.158-3.157v-6.719a3.159,3.159,0,0,0-3.158-3.157h-6.719a3.159,3.159,0,0,0-3.158,3.157v6.719a3.158,3.158,0,0,0,3.158,3.157Z" transform="translate(-106.045 -376.04)" fill="#fff"/></g></svg>