<svg xmlns="http://www.w3.org/2000/svg" width="52.453" height="56.08" viewBox="0 0 52.453 56.08"><g transform="translate(-16.558)"><path d="M51.4,187.506h1.877a1.7,1.7,0,0,0,1.7-1.7v-1.877a1.7,1.7,0,0,0-1.7-1.7H51.4a1.7,1.7,0,0,0-1.7,1.7v1.877A1.7,1.7,0,0,0,51.4,187.506Zm-.055-3.574a.055.055,0,0,1,.055-.055h1.877a.055.055,0,0,1,.055.055v1.877a.055.055,0,0,1-.055.055H51.4a.055.055,0,0,1-.055-.055Z" transform="translate(-29.514 -162.274)" fill="#4c5ffb"/><path d="M117.668,187.506h1.877a1.7,1.7,0,0,0,1.7-1.7v-1.877a1.7,1.7,0,0,0-1.7-1.7h-1.877a1.7,1.7,0,0,0-1.7,1.7v1.877A1.7,1.7,0,0,0,117.668,187.506Zm-.055-3.574a.055.055,0,0,1,.055-.055h1.877a.055.055,0,0,1,.055.055v1.877a.055.055,0,0,1-.055.055h-1.877a.055.055,0,0,1-.055-.055Z" transform="translate(-88.523 -162.274)" fill="#4c5ffb"/><path d="M183.934,187.506h1.877a1.7,1.7,0,0,0,1.7-1.7v-1.877a1.7,1.7,0,0,0-1.7-1.7h-1.877a1.7,1.7,0,0,0-1.7,1.7v1.877A1.7,1.7,0,0,0,183.934,187.506Zm-.055-3.574a.055.055,0,0,1,.055-.055h1.877a.055.055,0,0,1,.055.055v1.877a.055.055,0,0,1-.055.055h-1.877a.055.055,0,0,1-.055-.055Z" transform="translate(-147.531 -162.274)" fill="#4c5ffb"/><path d="M252.077,187.506a1.7,1.7,0,0,0,1.7-1.7v-1.877a1.7,1.7,0,0,0-1.7-1.7H250.2a1.7,1.7,0,0,0-1.7,1.7v1.877a1.7,1.7,0,0,0,1.7,1.7Zm-1.931-1.7v-1.877a.055.055,0,0,1,.055-.055h1.877a.055.055,0,0,1,.055.055v1.877a.055.055,0,0,1-.055.055H250.2A.055.055,0,0,1,250.146,185.808Z" transform="translate(-206.54 -162.274)" fill="#4c5ffb"/><path d="M318.333,187.506a1.7,1.7,0,0,0,1.7-1.7v-1.877a1.7,1.7,0,0,0-1.7-1.7h-1.877a1.7,1.7,0,0,0-1.7,1.7v1.877a1.7,1.7,0,0,0,1.7,1.7Zm-1.931-1.7v-1.877a.055.055,0,0,1,.055-.055h1.877a.055.055,0,0,1,.055.055v1.877a.055.055,0,0,1-.055.055h-1.877A.055.055,0,0,1,316.4,185.808Z" transform="translate(-265.539 -162.274)" fill="#4c5ffb"/><path d="M384.6,187.506a1.7,1.7,0,0,0,1.7-1.7v-1.877a1.7,1.7,0,0,0-1.7-1.7h-1.877a1.7,1.7,0,0,0-1.7,1.7v1.877a1.7,1.7,0,0,0,1.7,1.7Zm-1.931-1.7v-1.877a.055.055,0,0,1,.055-.055H384.6a.055.055,0,0,1,.055.055v1.877a.055.055,0,0,1-.055.055h-1.877A.055.055,0,0,1,382.668,185.808Z" transform="translate(-324.546 -162.274)" fill="#4c5ffb"/><path d="M49.7,252.074a1.7,1.7,0,0,0,1.7,1.7h1.877a1.7,1.7,0,0,0,1.7-1.7V250.2a1.7,1.7,0,0,0-1.7-1.7H51.4a1.7,1.7,0,0,0-1.7,1.7Zm1.643-1.877a.055.055,0,0,1,.055-.055h1.877a.055.055,0,0,1,.055.055v1.877a.055.055,0,0,1-.055.055H51.4a.055.055,0,0,1-.055-.055Z" transform="translate(-29.514 -221.281)" fill="#4c5ffb"/><path d="M115.97,252.074a1.7,1.7,0,0,0,1.7,1.7h1.877a1.7,1.7,0,0,0,1.7-1.7V250.2a1.7,1.7,0,0,0-1.7-1.7h-1.877a1.7,1.7,0,0,0-1.7,1.7Zm1.643-1.877a.055.055,0,0,1,.055-.055h1.877a.055.055,0,0,1,.055.055v1.877a.055.055,0,0,1-.055.055h-1.877a.055.055,0,0,1-.055-.055Z" transform="translate(-88.523 -221.281)" fill="#4c5ffb"/><path d="M182.236,252.074a1.7,1.7,0,0,0,1.7,1.7h1.877a1.7,1.7,0,0,0,1.7-1.7V250.2a1.7,1.7,0,0,0-1.7-1.7h-1.877a1.7,1.7,0,0,0-1.7,1.7Zm1.643-1.877a.055.055,0,0,1,.055-.055h1.877a.055.055,0,0,1,.055.055v1.877a.055.055,0,0,1-.055.055h-1.877a.055.055,0,0,1-.055-.055Z" transform="translate(-147.531 -221.281)" fill="#4c5ffb"/><path d="M49.7,318.341a1.7,1.7,0,0,0,1.7,1.7h1.877a1.7,1.7,0,0,0,1.7-1.7v-1.877a1.7,1.7,0,0,0-1.7-1.7H51.4a1.7,1.7,0,0,0-1.7,1.7Zm1.643-1.877a.055.055,0,0,1,.055-.055h1.877a.055.055,0,0,1,.055.055v1.877a.055.055,0,0,1-.055.055H51.4a.055.055,0,0,1-.055-.055Z" transform="translate(-29.514 -280.29)" fill="#4c5ffb"/><path d="M115.97,318.341a1.7,1.7,0,0,0,1.7,1.7h1.877a1.7,1.7,0,0,0,1.7-1.7v-1.877a1.7,1.7,0,0,0-1.7-1.7h-1.877a1.7,1.7,0,0,0-1.7,1.7Zm1.643-1.877a.055.055,0,0,1,.055-.055h1.877a.055.055,0,0,1,.055.055v1.877a.055.055,0,0,1-.055.055h-1.877a.055.055,0,0,1-.055-.055Z" transform="translate(-88.523 -280.29)" fill="#4c5ffb"/><path d="M182.236,318.341a1.7,1.7,0,0,0,1.7,1.7h1.877a1.7,1.7,0,0,0,1.7-1.7v-1.877a1.7,1.7,0,0,0-1.7-1.7h-1.877a1.7,1.7,0,0,0-1.7,1.7Zm1.643-1.877a.055.055,0,0,1,.055-.055h1.877a.055.055,0,0,1,.055.055v1.877a.055.055,0,0,1-.055.055h-1.877a.055.055,0,0,1-.055-.055Z" transform="translate(-147.531 -280.29)" fill="#4c5ffb"/><path d="M65.383,32.093V8.08a4.455,4.455,0,0,0-4.451-4.45H54.494V3.09a3.09,3.09,0,1,0-6.179,0v.539H33.625V3.09a3.09,3.09,0,0,0-6.179,0v.539H21.009a4.456,4.456,0,0,0-4.451,4.45V20.953a.821.821,0,1,0,1.643,0V17.974H63.74V30.507a14.4,14.4,0,0,0-16.505-1.275v-.285a1.731,1.731,0,0,0-1.729-1.729H43.692a1.731,1.731,0,0,0-1.729,1.729v1.815a1.73,1.73,0,0,0,1.488,1.71,14.365,14.365,0,0,0-3.3,9.177c0,.029,0,.057,0,.086H21.009A2.811,2.811,0,0,1,18.2,38.928V24.239a.821.821,0,1,0-1.643,0V42.557a4.455,4.455,0,0,0,4.451,4.45H23a.821.821,0,0,0,0-1.643H21.009A2.811,2.811,0,0,1,18.2,42.557v-.179a4.429,4.429,0,0,0,2.808,1H40.253a14.34,14.34,0,0,0,.382,1.986H26.282a.821.821,0,0,0,0,1.643h14.9a14.429,14.429,0,1,0,24.2-14.914Zm-15.426-29a1.447,1.447,0,1,1,2.893,0V7.626a1.447,1.447,0,1,1-2.893,0Zm-20.869,0a1.447,1.447,0,0,1,2.893,0V7.626a1.447,1.447,0,1,1-2.893,0Zm-8.08,2.182h6.437V7.258h-.993a.821.821,0,1,0,0,1.643h1.27a3.088,3.088,0,0,0,5.626,0h1.27a.821.821,0,0,0,0-1.643h-.993V5.272H48.314V7.258h-.993a.821.821,0,0,0,0,1.643h1.27a3.088,3.088,0,0,0,5.626,0h1.27a.821.821,0,1,0,0-1.643h-.993V5.272h6.439A2.811,2.811,0,0,1,63.74,8.08V12.7H18.2V8.08a2.811,2.811,0,0,1,2.808-2.808ZM18.2,16.331V14.345H63.741v1.986ZM43.606,28.947a.086.086,0,0,1,.086-.086h1.814a.086.086,0,0,1,.086.086v1.421q-.291.233-.57.48h-1.33a.086.086,0,0,1-.086-.086V28.947ZM54.58,54.437A12.788,12.788,0,1,1,67.368,41.649,12.8,12.8,0,0,1,54.58,54.437Z" fill="#4c5ffb"/><path d="M275.877,281.633a10.8,10.8,0,1,0,10.8,10.8A10.814,10.814,0,0,0,275.877,281.633Zm0,19.96a9.159,9.159,0,1,1,9.159-9.159A9.169,9.169,0,0,1,275.877,301.593Z" transform="translate(-221.297 -250.785)" fill="#4c5ffb"/><path d="M346.8,321.118h-2.032a2.647,2.647,0,0,0-1.683-1.683v-3.847a.821.821,0,1,0-1.643,0v3.847a2.636,2.636,0,1,0,3.326,3.326H346.8a.821.821,0,1,0,0-1.643Zm-4.536,1.815a.993.993,0,1,1,.993-.993A.994.994,0,0,1,342.262,322.933Z" transform="translate(-287.682 -280.29)" fill="#4c5ffb"/></g></svg>