<svg xmlns="http://www.w3.org/2000/svg" width="156.9" height="169.518" viewBox="0 0 156.9 169.518"><path d="M133.379,105.551a31.926,31.926,0,0,0-24.605,11.578L70.579,95.443a31.913,31.913,0,0,0,0-21.362L108.77,52.391a31.946,31.946,0,1,0-5.533-9.727L65.044,64.355a31.981,31.981,0,1,0,0,40.813l38.194,21.686a31.976,31.976,0,1,0,30.141-21.3Zm0-94.36A20.794,20.794,0,1,1,112.588,31.98,20.812,20.812,0,0,1,133.379,11.191Zm-92.936,94.36A20.79,20.79,0,1,1,61.229,84.762,20.816,20.816,0,0,1,40.443,105.551Zm92.936,52.777a20.793,20.793,0,1,1,20.787-20.789A20.814,20.814,0,0,1,133.379,158.328Z" transform="translate(-8.456)" fill="#fff"/></svg>