<svg xmlns="http://www.w3.org/2000/svg" width="127" height="127" viewBox="0 0 127 127"><g transform="translate(-6250 -3624)"><path d="M19.05,0h88.9A19.05,19.05,0,0,1,127,19.05v88.9A19.05,19.05,0,0,1,107.95,127H19.05A19.05,19.05,0,0,1,0,107.95V19.05A19.05,19.05,0,0,1,19.05,0Z" transform="translate(6250 3624)" fill="#5568fe"/><g transform="translate(6275.977 3649.902)"><path d="M358.944,252.07l-.773,4.507a1.1,1.1,0,0,0,1.595,1.159l4.048-2.128,4.048,2.128a1.1,1.1,0,0,0,1.595-1.159l-.773-4.507,3.275-3.192a1.1,1.1,0,0,0-.609-1.875l-4.525-.658-2.024-4.1a1.1,1.1,0,0,0-1.972,0l-2.024,4.1-4.525.658a1.1,1.1,0,0,0-.609,1.875Zm2.748-3.632a1.1,1.1,0,0,0,.827-.6l1.294-2.622,1.293,2.622a1.1,1.1,0,0,0,.828.6l2.893.42-2.094,2.041a1.1,1.1,0,0,0-.316.973l.494,2.881-2.587-1.36a1.1,1.1,0,0,0-1.023,0l-2.587,1.36.494-2.881a1.1,1.1,0,0,0-.316-.973l-2.094-2.041Z" transform="translate(-303.326 -206.215)" fill="#fff"/><path d="M42.944,176.924l-.773,4.507a1.1,1.1,0,0,0,1.595,1.159l4.048-2.128,4.047,2.128a1.1,1.1,0,0,0,1.595-1.159l-.773-4.507,3.275-3.192a1.1,1.1,0,0,0-.609-1.875l-4.525-.657L48.8,167.1a1.1,1.1,0,0,0-1.972,0L44.8,171.2l-4.525.658a1.1,1.1,0,0,0-.609,1.875Zm2.748-3.632a1.1,1.1,0,0,0,.828-.6l1.294-2.621,1.294,2.621a1.1,1.1,0,0,0,.828.6l2.893.42-2.093,2.041a1.1,1.1,0,0,0-.316.973l.494,2.881-2.587-1.36a1.1,1.1,0,0,0-1.023,0l-2.587,1.36.494-2.881a1.1,1.1,0,0,0-.316-.973L42.8,173.712Z" transform="translate(-33.643 -142.083)" fill="#fff"/><path d="M185.991,7.293V8.629a6.38,6.38,0,0,0,5.271,6.274v3.083a6.44,6.44,0,0,0-5.294,5.242h-1.539a1.1,1.1,0,0,0,0,2.2h15.783a1.1,1.1,0,0,0,0-2.2h-1.584a6.44,6.44,0,0,0-5.167-5.219V14.9a6.38,6.38,0,0,0,5.271-6.274V7.281A5.123,5.123,0,0,0,202.056,5.6,6.343,6.343,0,0,0,203.295.938,1.1,1.1,0,0,0,202.207,0H182.434a1.1,1.1,0,0,0-1.087.938A6.343,6.343,0,0,0,182.586,5.6,5.148,5.148,0,0,0,185.991,7.293Zm10.39,15.936h-8.165a4.228,4.228,0,0,1,8.165,0Zm4.01-19.068a2.864,2.864,0,0,1-1.658.892V2.2h2.394A3.464,3.464,0,0,1,200.391,4.16ZM188.19,2.2h8.344V6.126a1.1,1.1,0,0,0-.008.128,1.078,1.078,0,0,0,.008.128V8.629a4.172,4.172,0,0,1-8.344,0Zm-2.2,0V5.068a2.91,2.91,0,0,1-1.733-.9,3.454,3.454,0,0,1-.743-1.971Z" transform="translate(-154.797)" fill="#fff"/><path d="M74.441,246.722h-1.7v-14.4a2.829,2.829,0,0,0-2.826-2.826H51a2.815,2.815,0,0,0-.779.112V206.393a2.829,2.829,0,0,0-2.825-2.826H28.484a2.829,2.829,0,0,0-2.825,2.826v11.685a2.815,2.815,0,0,0-.627-.073H6.117a2.829,2.829,0,0,0-2.826,2.826v8.594a1.1,1.1,0,0,0,2.2,0v-8.594a.628.628,0,0,1,.627-.627H25.032a.628.628,0,0,1,.627.627v25.89H5.49V234.849a1.1,1.1,0,0,0-2.2,0v11.873h-1.7a1.1,1.1,0,1,0,0,2.2H74.441a1.1,1.1,0,1,0,0-2.2Zm-46.584,0V206.393a.628.628,0,0,1,.626-.628H47.4a.628.628,0,0,1,.626.628v40.328H27.857Zm22.519,0v-14.4A.628.628,0,0,1,51,231.69H69.918a.628.628,0,0,1,.627.628v14.4Z" transform="translate(-0.494 -173.729)" fill="#fff"/></g></g></svg>