<svg xmlns="http://www.w3.org/2000/svg" width="127" height="126.987" viewBox="0 0 127 126.987"><path d="M361.428,259.26l-1.306,7.611a1.856,1.856,0,0,0,2.693,1.958l6.836-3.594,6.835,3.594a1.856,1.856,0,0,0,2.694-1.958l-1.306-7.611,5.531-5.391a1.856,1.856,0,0,0-1.029-3.167l-7.642-1.111-3.418-6.925a1.857,1.857,0,0,0-3.33,0l-3.418,6.925-7.642,1.111a1.856,1.856,0,0,0-1.029,3.167Zm4.641-6.134a1.855,1.855,0,0,0,1.4-1.015l2.186-4.427,2.184,4.427a1.857,1.857,0,0,0,1.4,1.015l4.885.71-3.536,3.447a1.856,1.856,0,0,0-.533,1.643l.834,4.866-4.369-2.3a1.86,1.86,0,0,0-1.728,0l-4.37,2.3.835-4.866a1.858,1.858,0,0,0-.533-1.644l-3.536-3.447Z" transform="translate(-267.24 -181.817)" fill="#3e4a5a"/><path d="M45.429,184.114l-1.306,7.611a1.856,1.856,0,0,0,2.694,1.957l6.836-3.594,6.835,3.594a1.857,1.857,0,0,0,2.693-1.957l-1.305-7.611,5.53-5.391a1.857,1.857,0,0,0-1.029-3.167l-7.642-1.11-3.418-6.925a1.857,1.857,0,0,0-3.33,0l-3.418,6.925-7.642,1.111a1.857,1.857,0,0,0-1.029,3.167Zm4.641-6.134a1.855,1.855,0,0,0,1.4-1.016l2.185-4.427,2.185,4.427a1.856,1.856,0,0,0,1.4,1.016l4.886.71-3.535,3.447a1.856,1.856,0,0,0-.534,1.643l.835,4.866-4.37-2.3a1.858,1.858,0,0,0-1.728,0l-4.37,2.3.835-4.866a1.857,1.857,0,0,0-.534-1.643l-3.535-3.447Z" transform="translate(-29.722 -125.273)" fill="#3e4a5a"/><path d="M189.223,12.316v2.257a10.775,10.775,0,0,0,8.9,10.6v5.208a10.877,10.877,0,0,0-8.941,8.853h-2.6a1.858,1.858,0,0,0,0,3.713H213.24a1.858,1.858,0,0,0,0-3.713h-2.674a10.877,10.877,0,0,0-8.727-8.815V25.168a10.774,10.774,0,0,0,8.9-10.6V12.3a8.651,8.651,0,0,0,5.613-2.845c2.749-3.186,2.12-7.678,2.092-7.867A1.857,1.857,0,0,0,216.61,0H183.216a1.857,1.857,0,0,0-1.837,1.585c-.028.19-.656,4.681,2.092,7.867A8.7,8.7,0,0,0,189.223,12.316ZM206.77,39.23H192.98a7.141,7.141,0,0,1,13.79,0Zm6.773-32.2a4.836,4.836,0,0,1-2.8,1.507V3.713h4.043A5.848,5.848,0,0,1,213.542,7.026ZM192.936,3.713h14.092v6.633a1.876,1.876,0,0,0-.014.216,1.8,1.8,0,0,0,.014.216v3.8a7.046,7.046,0,0,1-14.092,0Zm-3.713,0V8.559A4.914,4.914,0,0,1,186.3,7.041a5.833,5.833,0,0,1-1.255-3.328Z" transform="translate(-136.413)" fill="#3e4a5a"/><path d="M125.634,276.449h-2.873V252.122a4.783,4.783,0,0,0-4.782-4.773H85.969a4.766,4.766,0,0,0-1.318.189v-39.2a4.782,4.782,0,0,0-4.781-4.773H47.86a4.782,4.782,0,0,0-4.781,4.773v19.734a4.778,4.778,0,0,0-1.061-.122H10.009a4.782,4.782,0,0,0-4.782,4.772v14.514a1.862,1.862,0,0,0,3.721,0V232.725a1.062,1.062,0,0,1,1.061-1.059H42.019a1.061,1.061,0,0,1,1.061,1.059v43.724H8.948V256.4a1.862,1.862,0,0,0-3.721,0v20.051H2.354a1.857,1.857,0,1,0,0,3.713H125.634a1.857,1.857,0,1,0,0-3.713Zm-78.833,0V208.34a1.061,1.061,0,0,1,1.06-1.06H79.87a1.062,1.062,0,0,1,1.06,1.06v68.109H46.8Zm38.108,0V252.122a1.062,1.062,0,0,1,1.06-1.06h32.01a1.062,1.062,0,0,1,1.061,1.06v24.327Z" transform="translate(-0.494 -153.175)" fill="#3e4a5a"/></svg>