<svg xmlns="http://www.w3.org/2000/svg" xmlns:xlink="http://www.w3.org/1999/xlink" width="212.852" height="141.983" viewBox="0 0 212.852 141.983"><defs><radialGradient id="a" cx="0.5" cy="0.5" r="0.5" gradientUnits="objectBoundingBox"><stop offset="0" stop-color="#ffe710"/><stop offset="1" stop-color="#ffbd20"/></radialGradient><clipPath id="b"><path d="M36.629,8.889a20,20,0,0,1-2.487,25.254l-3.353-3.353-3.16-3.16a10.789,10.789,0,0,0,1.818-12.84q-.221-.4-.476-.783A10.789,10.789,0,0,0,9.418,22.1q.09.451.217.89A10.789,10.789,0,0,0,20,30.789V30.8l4.583,4.723L29.167,40H20A20,20,0,1,1,36.629,8.889Z" fill="#fff" opacity="0"/></clipPath></defs><g transform="translate(-58.148 -24.705)"><g transform="translate(57 24)"><path d="M1.481,0,12.672,8.171,0,13.777Z" transform="translate(81.835 14.237)" fill="#c4d0fb"/><path d="M0,13.856,24,0V27.713Z" transform="translate(147.164 3.144)" fill="#ffd6dd"/><path d="M15,0V17.321L0,8.66Z" transform="translate(40.66 81)" fill="#c4d0fb"/><g transform="translate(29 24)" fill="none" stroke-miterlimit="10"><path d="M20,10A10,10,0,1,1,10,0,10,10,0,0,1,20,10Z" stroke="none"/><path d="M 10 4 C 6.691587448120117 4 4 6.691587448120117 4 10 C 4 13.30841255187988 6.691587448120117 16 10 16 C 13.30841255187988 16 16 13.30841255187988 16 10 C 16 6.691587448120117 13.30841255187988 4 10 4 M 10 0 C 15.52280044555664 0 20 4.477149963378906 20 10 C 20 15.52280044555664 15.52280044555664 20 10 20 C 4.477149963378906 20 0 15.52280044555664 0 10 C 0 4.477149963378906 4.477149963378906 0 10 0 Z" stroke="none" fill="#c9f2e9"/></g><g transform="translate(1.148 0.705)" fill="none" stroke-miterlimit="10"><path d="M14.9,0A12,12,0,1,1,0,16.417l4.341-2.049a7.2,7.2,0,1,0,8.942-9.85Z" stroke="none"/><path d="M 14.9042444229126 -5.7220458984375e-06 C 16.76174545288086 0.6663684844970703 18.42624473571777 1.780544281005859 19.750244140625 3.243856430053711 C 21.07434463500977 4.707155227661133 22.01704406738281 6.474418640136719 22.49494552612305 8.389093399047852 C 22.97284507751465 10.30375576019287 22.97114562988281 12.30675601959229 22.49004554748535 14.22055625915527 C 22.0090446472168 16.13445663452148 21.06334495544434 17.90015602111816 19.73684501647949 19.36125564575195 C 18.41034507751465 20.82235527038574 16.74404525756836 21.93375587463379 14.88544464111328 22.59705543518066 C 13.02684497833252 23.26035499572754 11.03334522247314 23.4549560546875 9.081544876098633 23.16375541687012 C 7.129682540893555 22.87265586853027 5.279808044433594 22.10455513000488 3.695732116699219 20.92765617370605 C 2.111644744873047 19.75085639953613 0.8422565460205078 18.20145606994629 -5.7220458984375e-06 16.41675567626953 L 4.340856552124023 14.36815547943115 C 4.846206665039062 15.43895626068115 5.607845306396484 16.36855697631836 6.558294296264648 17.07465553283691 C 7.508744239807129 17.78085517883301 8.618669509887695 18.24165534973145 9.78974437713623 18.41635513305664 C 10.96084785461426 18.59105682373047 12.15694522857666 18.4742546081543 13.27214431762695 18.07625579833984 C 14.38724422454834 17.6783561706543 15.38704490661621 17.01145553588867 16.18294525146484 16.13485527038574 C 16.97884368896484 15.25815582275391 17.54624557495117 14.19875621795654 17.83494567871094 13.05045604705811 C 18.12354469299316 11.90205574035645 18.12454414367676 10.70035552978516 17.83784484863281 9.551555633544922 C 17.55104446411133 8.402706146240234 16.98544502258301 7.342355728149414 16.19104385375977 6.464380264282227 C 15.39654445648193 5.586393356323242 14.3978443145752 4.917881011962891 13.28334426879883 4.518054962158203 L 14.9042444229126 -5.7220458984375e-06 Z" stroke="none" fill="#ffd6dd"/></g><g transform="translate(168.928 62.928)" fill="none" stroke-miterlimit="10"><path d="M.128,9.426a8,8,0,1,1,14.446,3.133l-3.287-2.279A4,4,0,1,0,4.064,8.713Z" stroke="none"/><path d="M 13.84114646911621 9.370094299316406 C 13.89379024505615 9.146326065063477 13.93362045288086 8.919393539428711 13.96013164520264 8.690652847290039 C 14.01341724395752 8.230891227722168 14.01263904571533 7.766056537628174 13.95925712585449 7.307324886322021 C 14.01259613037109 7.765944480895996 14.01337337493896 8.230806350708008 13.96010112762451 8.690463066101074 C 13.93361663818359 8.919253349304199 13.89379215240479 9.146266937255859 13.84114646911621 9.370094299316406 M 2.077764272689819 7.039952278137207 L 2.077765941619873 7.039952278137207 C 2.125883340835571 6.742043972015381 2.196403741836548 6.447706699371338 2.289141178131104 6.159963130950928 C 2.59062123298645 5.224133014678955 3.123771190643311 4.368333339691162 3.830961227416992 3.685043096542358 C 4.310075283050537 3.222134351730347 4.865503311157227 2.841816425323486 5.467940807342529 2.560964107513428 C 4.865437030792236 2.841822147369385 4.309971332550049 3.222145080566406 3.830911159515381 3.685013294219971 C 3.123831272125244 4.368173122406006 2.590701103210449 5.22394323348999 2.289151191711426 6.15980339050293 C 2.196407556533813 6.447617530822754 2.125882625579834 6.742014408111572 2.077764272689819 7.039952278137207 M 12.88801574707031 4.521493911743164 C 12.76082134246826 4.342762470245361 12.62391948699951 4.171001434326172 12.47796058654785 4.007115840911865 C 12.62392902374268 4.171013832092285 12.76081466674805 4.342756748199463 12.88801574707031 4.521493911743164 M 14.5743408203125 12.55828285217285 L 11.28718090057373 10.27913284301758 C 11.66199111938477 9.738553047180176 11.89773082733154 9.113862991333008 11.9733715057373 8.46047306060791 C 12.04910087585449 7.807033061981201 11.96258163452148 7.144973278045654 11.72128105163574 6.53303337097168 C 11.48007106781006 5.921043395996094 11.09162139892578 5.378023147583008 10.59037113189697 4.952043056488037 C 10.08912086486816 4.526053428649902 9.490541458129883 4.230283260345459 8.847681045532227 4.090823173522949 C 8.20488166809082 3.951454162597656 7.537492275238037 3.972692966461182 6.904850959777832 4.152842998504639 C 6.27216100692749 4.332913398742676 5.693701267242432 4.666313171386719 5.220641136169434 5.123373031616211 C 4.747581005096436 5.580443382263184 4.394511222839355 6.147093296051025 4.192790985107422 6.773243427276611 C 3.991021156311035 7.399302959442139 3.946811199188232 8.065503120422363 4.06403112411499 8.712782859802246 L 0.1280411779880524 9.425562858581543 C -0.1063788235187531 8.131043434143066 -0.01795882359147072 6.79861307144165 0.3855311870574951 5.546413421630859 C 0.7890211939811707 4.294203281402588 1.495091199874878 3.160823106765747 2.441231250762939 2.246683120727539 C 3.387361288070679 1.332543134689331 4.544331073760986 0.6658431887626648 5.80971097946167 0.305703192949295 C 7.075020790100098 -0.05451671034097672 8.40962028503418 -0.09711691737174988 9.69542121887207 0.1817431896924973 C 10.98117160797119 0.4605231881141663 12.17825126647949 1.052133202552795 13.18076133728027 1.904133200645447 C 14.18323135375977 2.75605320930481 14.9601411819458 3.842103242874146 15.44256114959717 5.066082954406738 C 15.92507076263428 6.290013313293457 16.09829139709473 7.614043235778809 15.94683074951172 8.920903205871582 C 15.79537105560303 10.22777366638184 15.32398128509521 11.4771032333374 14.5743408203125 12.55828285217285 Z" stroke="none" fill="#c4d0fb"/></g><g transform="translate(148 107)" fill="none" stroke-miterlimit="10"><path d="M20,10A10,10,0,1,1,10,0,10,10,0,0,1,20,10Z" stroke="none"/><path d="M 10 4 C 6.691587448120117 4 4 6.691587448120117 4 10 C 4 13.30841255187988 6.691587448120117 16 10 16 C 13.30841255187988 16 16 13.30841255187988 16 10 C 16 6.691587448120117 13.30841255187988 4 10 4 M 10 0 C 15.52280044555664 0 20 4.477149963378906 20 10 C 20 15.52280044555664 15.52280044555664 20 10 20 C 4.477149963378906 20 0 15.52280044555664 0 10 C 0 4.477149963378906 4.477149963378906 0 10 0 Z" stroke="none" fill="#c9f2e9"/></g><g transform="translate(18.411 109.411)" fill="none" stroke-miterlimit="10"><path d="M6.825,15.913a8,8,0,1,1,7.6-12.678L11.213,5.618a4,4,0,1,0-3.8,6.339Z" stroke="none"/><path d="M 5.190807342529297 13.30121612548828 L 5.190807342529297 13.30121612548828 C 4.924077987670898 13.16006946563721 4.667914867401123 12.99884796142578 4.425127029418945 12.81869983673096 C 3.635487079620361 12.23293018341064 2.995947122573853 11.45341014862061 2.57565712928772 10.56441974639893 C 2.27521538734436 9.928916931152344 2.089111089706421 9.242351531982422 2.025097608566284 8.54386043548584 C 2.089097023010254 9.242413520812988 2.275186777114868 9.929003715515137 2.575607061386108 10.56444931030273 C 2.995816946029663 11.45331001281738 3.635317087173462 12.2327995300293 4.424966812133789 12.81863975524902 C 4.667822360992432 12.99881267547607 4.924051284790039 13.16006088256836 5.190807342529297 13.30121612548828 M 11.18932342529297 2.918227195739746 C 10.98877048492432 2.792172193527222 10.78068923950195 2.677932262420654 10.56619739532471 2.576439619064331 C 10.12207889556885 2.366294860839844 9.64985466003418 2.211345672607422 9.166230201721191 2.115341424942017 C 9.649809837341309 2.211348533630371 10.12194061279297 2.36628270149231 10.56599712371826 2.576399803161621 C 10.78054523468018 2.677884101867676 10.98871326446533 2.792149782180786 11.18932342529297 2.918227195739746 M 6.824837207794189 15.91319942474365 C 5.523537158966064 15.71994018554688 4.289896965026855 15.20873928070068 3.233317136764526 14.42486953735352 C 2.176737070083618 13.64098930358887 1.329766988754272 12.60863971710205 0.7674770355224609 11.41923999786377 C 0.2051770240068436 10.22985935211182 -0.0551229752600193 8.920159339904785 0.009717023931443691 7.606119632720947 C 0.07445702701807022 6.292129516601562 0.4622470140457153 5.014399528503418 1.138867020606995 3.886029720306396 C 1.815387010574341 2.75767970085144 2.759767055511475 1.813649654388428 3.888337135314941 1.137459754943848 C 5.01682710647583 0.4612797200679779 6.294716835021973 0.0738397091627121 7.608767032623291 0.00957970879971981 C 8.922806739807129 -0.05478052422404289 10.23241710662842 0.205909937620163 11.42161655426025 0.7686097025871277 C 12.61081695556641 1.331309676170349 13.64289665222168 2.178579807281494 14.42643737792969 3.23544979095459 L 11.21321678161621 5.61769962310791 C 10.82144737243652 5.089269638061523 10.30540657043457 4.665589809417725 9.710817337036133 4.384339809417725 C 9.116207122802734 4.102989673614502 8.46137523651123 3.972538709640503 7.80437707901001 4.004779815673828 C 7.147356986999512 4.036909580230713 6.508407115936279 4.230629920959473 5.944137096405029 4.568719863891602 C 5.379857063293457 4.906819820404053 4.907687187194824 5.378869533538818 4.569376945495605 5.943009853363037 C 4.231156826019287 6.507129669189453 4.037177085876465 7.146049499511719 4.004847049713135 7.803049564361572 C 3.972427129745483 8.46006965637207 4.102626800537109 9.114910125732422 4.383777141571045 9.709599494934082 C 4.664927005767822 10.30428981781006 5.088356971740723 10.82047939300537 5.616696834564209 11.21240997314453 C 6.144937038421631 11.60435962677002 6.761756896972656 11.85995960235596 7.412426948547363 11.95658016204834 L 6.824837207794189 15.91319942474365 Z" stroke="none" fill="#ffd6dd"/></g><path d="M6,3A3,3,0,1,1,3,0,3,3,0,0,1,6,3Z" transform="translate(208 44)" fill="#c4d0fb"/><path d="M6,3A3,3,0,1,1,3,0,3,3,0,0,1,6,3Z" transform="translate(6 60)" fill="#c4d0fb"/><g transform="translate(37 18)"><path d="M19.688,109.375a1.1,1.1,0,0,1-1.094-1.094v-4.415a4.37,4.37,0,0,1,4.375-4.375h26.8V85.108A35.016,35.016,0,0,1,18.895,54.961,22.459,22.459,0,0,1,0,32.812V12.578A6.015,6.015,0,0,1,6.016,6.563H18.594V1.094A1.1,1.1,0,0,1,19.688,0h70a1.1,1.1,0,0,1,1.093,1.094V6.563h12.577a6.015,6.015,0,0,1,6.017,6.016V32.812A22.459,22.459,0,0,1,90.481,54.961,35.017,35.017,0,0,1,59.61,85.108V99.491h26.8a4.37,4.37,0,0,1,4.375,4.375v4.415a1.1,1.1,0,0,1-1.093,1.094Z" transform="translate(15.313 15.313)" fill="url(#a)"/><g transform="translate(50 37)"><path d="M36.629,8.889a20,20,0,0,1-2.487,25.254l-3.353-3.353-3.16-3.16a10.789,10.789,0,0,0,1.818-12.84q-.221-.4-.476-.783A10.789,10.789,0,0,0,9.418,22.1q.09.451.217.89A10.789,10.789,0,0,0,20,30.789V30.8l4.583,4.723L29.167,40H20A20,20,0,1,1,36.629,8.889Z" fill="#fff" opacity="0"/><g clip-path="url(#b)"><path d="M10.243,33.667,38.667,5.822,32.521,0,0,32.148Z" transform="translate(5.667 8)" fill="#fff"/><path d="M10.155,33.667,38.333,5.822,32.241,0,0,32.148Z" transform="translate(11 14)" fill="#fff"/><path d="M5.565,38.043l32.125-32L32.125,0,0,32Z" transform="translate(1.56 1.031) rotate(-0.323)" fill="#fff"/><path d="M4.51,35.667,36.333,3.541,28.064,0,0,28.331Z" transform="translate(-2.667 -2)" fill="#fff"/><path d="M0,28.333,28.333,0,13.155,1.518,0,15.938Z" transform="translate(-2.667 -2)" fill="#fff"/></g></g></g></g></g></svg>