<svg xmlns="http://www.w3.org/2000/svg" width="26.93" height="24.235" viewBox="0 0 26.93 24.235"><g transform="translate(1 1.019)"><path d="M160.635,88.635h-4.318a4.318,4.318,0,0,1,0-8.635h4.318Z" transform="translate(-152 -73.551)" fill="#4c5ffb" opacity="0.2"/><path d="M156.317,80V93.355a.864.864,0,0,1-.385.719l-1.186.791a.864.864,0,0,1-1.317-.509L152,88.635" transform="translate(-146.671 -72.805)" fill="none" stroke="#4c5ffb" stroke-linecap="round" stroke-linejoin="round" stroke-width="2"/><path d="M36.985,47.755c-2.754,0-4.986-1.933-4.986-4.318s2.232-4.318,4.986-4.318h4.986A24.917,24.917,0,0,0,55.29,34.376a1.122,1.122,0,0,1,1.062-.122.865.865,0,0,1,.577.782v16.8a.865.865,0,0,1-.577.782A1.122,1.122,0,0,1,55.29,52.5a24.917,24.917,0,0,0-13.319-4.744Z" transform="translate(-32 -34.173)" fill="none" stroke="#4c5ffb" stroke-linecap="round" stroke-linejoin="round" stroke-width="2"/></g></svg>