<svg xmlns="http://www.w3.org/2000/svg" width="19" height="19" viewBox="0 0 19 19"><rect width="19" height="19" fill="none"/><ellipse cx="2.5" cy="3" rx="2.5" ry="3" transform="translate(7 6)" fill="none" stroke="#000" stroke-linecap="round" stroke-linejoin="round" stroke-width="1"/><path d="M196,116a4.378,4.378,0,0,1,3.508,1.754" transform="translate(-181.675 -107.522)" fill="none" stroke="#000" stroke-linecap="round" stroke-linejoin="round" stroke-width="1"/><path d="M12,117.754A4.378,4.378,0,0,1,15.505,116" transform="translate(-11.12 -107.522)" fill="none" stroke="#000" stroke-linecap="round" stroke-linejoin="round" stroke-width="1"/><path d="M70.434,182.631a4.679,4.679,0,0,1,8.414,0" transform="translate(-65.287 -166.845)" fill="none" stroke="#000" stroke-linecap="round" stroke-linejoin="round" stroke-width="1"/><path d="M30.344,56.675a2.339,2.339,0,1,1,2.3-2.778" transform="translate(-25.959 -48.197)" fill="none" stroke="#000" stroke-linecap="round" stroke-linejoin="round" stroke-width="1"/><path d="M164.563,53.892a2.339,2.339,0,1,1,2.3,2.778" transform="translate(-152.536 -48.192)" fill="none" stroke="#000" stroke-linecap="round" stroke-linejoin="round" stroke-width="1"/></svg>