<svg xmlns="http://www.w3.org/2000/svg" width="127" height="127" viewBox="0 0 127 127"><path d="M107.95,0H19.05A19.071,19.071,0,0,0,0,19.05v88.9A19.071,19.071,0,0,0,19.05,127h88.9A19.071,19.071,0,0,0,127,107.95V19.05A19.071,19.071,0,0,0,107.95,0Zm14.817,107.95a14.834,14.834,0,0,1-14.817,14.817H19.05A14.834,14.834,0,0,1,4.233,107.95V19.05A14.834,14.834,0,0,1,19.05,4.233h88.9A14.834,14.834,0,0,1,122.767,19.05Z" fill="#3e4a5a"/><path d="M110.431,4H15.322A11.336,11.336,0,0,0,4,15.322v95.109a11.336,11.336,0,0,0,11.322,11.322h95.109a11.336,11.336,0,0,0,11.322-11.322V15.322A11.336,11.336,0,0,0,110.431,4Zm6.793,106.431a6.793,6.793,0,0,1-6.793,6.793H15.322a6.793,6.793,0,0,1-6.793-6.793V15.322a6.793,6.793,0,0,1,6.793-6.793h95.109a6.793,6.793,0,0,1,6.793,6.793Z" transform="translate(0.623 0.623)" fill="#3e4a5a"/><path d="M110.138,69.694H97.5V57.054A5.056,5.056,0,0,0,92.439,52H82.325a5.056,5.056,0,0,0-5.057,5.056v12.64H72.634a37.858,37.858,0,0,0-13.333-8,27.812,27.812,0,1,0-24.751,0A37.961,37.961,0,0,0,9,97.5v10.112a7.585,7.585,0,0,0,7.585,7.584H77.268a7.585,7.585,0,0,0,7.585-7.584h7.585a5.056,5.056,0,0,0,5.057-5.056V89.918h12.642a5.056,5.056,0,0,0,5.057-5.056V74.75a5.056,5.056,0,0,0-5.057-5.056ZM24.171,36.83A22.756,22.756,0,1,1,46.927,59.582,22.754,22.754,0,0,1,24.171,36.83Zm53.1,73.312H16.585a2.528,2.528,0,0,1-2.528-2.528V97.5A32.827,32.827,0,0,1,64.421,69.714a5.056,5.056,0,0,0-4.852,5.036V84.862a5.056,5.056,0,0,0,5.057,5.056H77.268v12.64a5.038,5.038,0,0,0,2.528,4.353v.7a2.528,2.528,0,0,1-2.528,2.528Zm32.87-25.28H97.5a5.056,5.056,0,0,0-5.057,5.056v12.64H82.325V89.918a5.056,5.056,0,0,0-5.057-5.056H64.626V74.75H77.268a5.056,5.056,0,0,0,5.057-5.056V57.054H92.439v12.64A5.056,5.056,0,0,0,97.5,74.75h12.642Z" transform="translate(1.402 1.4)" fill="#3e4a5a"/></svg>