<svg xmlns="http://www.w3.org/2000/svg" width="127" height="127" viewBox="0 0 127 127"><g transform="translate(-6468 -3624)"><path d="M19.05,0h88.9A19.05,19.05,0,0,1,127,19.05v88.9A19.05,19.05,0,0,1,107.95,127H19.05A19.05,19.05,0,0,1,0,107.95V19.05A19.05,19.05,0,0,1,19.05,0Z" transform="translate(6468 3624)" fill="#5568fe"/><g transform="translate(6497.793 3655.509)"><path d="M54.386,0H9.6A9.608,9.608,0,0,0,0,9.6V54.386a9.608,9.608,0,0,0,9.6,9.6H54.386a9.608,9.608,0,0,0,9.6-9.6V9.6A9.608,9.608,0,0,0,54.386,0Zm7.465,54.386a7.473,7.473,0,0,1-7.465,7.465H9.6a7.473,7.473,0,0,1-7.465-7.465V9.6A7.473,7.473,0,0,1,9.6,2.133H54.386A7.473,7.473,0,0,1,61.851,9.6Z" fill="#fff"/><path d="M54.12,4H9.332A5.338,5.338,0,0,0,4,9.332V54.12a5.338,5.338,0,0,0,5.332,5.332H54.12a5.338,5.338,0,0,0,5.332-5.332V9.332A5.338,5.338,0,0,0,54.12,4Zm3.2,50.12a3.2,3.2,0,0,1-3.2,3.2H9.332a3.2,3.2,0,0,1-3.2-3.2V9.332a3.2,3.2,0,0,1,3.2-3.2H54.12a3.2,3.2,0,0,1,3.2,3.2Z" transform="translate(0.266 0.266)" fill="#fff"/><path d="M51.656,34.594H46.324V29.262a2.133,2.133,0,0,0-2.133-2.133H39.925a2.133,2.133,0,0,0-2.133,2.133v5.332H35.838a15.966,15.966,0,0,0-5.623-3.373,11.73,11.73,0,1,0-10.439,0A16.013,16.013,0,0,0,9,46.325V50.59a3.2,3.2,0,0,0,3.2,3.2H37.793a3.2,3.2,0,0,0,3.2-3.2h3.2a2.133,2.133,0,0,0,2.133-2.133V43.125h5.332a2.133,2.133,0,0,0,2.133-2.133V36.727a2.133,2.133,0,0,0-2.133-2.133ZM15.4,20.731a9.6,9.6,0,1,1,9.6,9.6A9.6,9.6,0,0,1,15.4,20.731ZM37.793,51.657H12.2a1.066,1.066,0,0,1-1.066-1.066V46.325A13.845,13.845,0,0,1,32.374,34.6a2.133,2.133,0,0,0-2.046,2.124v4.266a2.133,2.133,0,0,0,2.133,2.133h5.332v5.332a2.125,2.125,0,0,0,1.066,1.836v.3a1.066,1.066,0,0,1-1.066,1.066ZM51.656,40.993H46.324a2.133,2.133,0,0,0-2.133,2.133v5.332H39.925V43.125a2.133,2.133,0,0,0-2.133-2.133H32.461V36.727h5.332a2.133,2.133,0,0,0,2.133-2.133V29.262h4.266v5.332a2.133,2.133,0,0,0,2.133,2.133h5.332Z" transform="translate(0.598 0.597)" fill="#fff"/></g></g></svg>