<svg xmlns="http://www.w3.org/2000/svg" width="100.894" height="127.282" viewBox="0 0 100.894 127.282"><g transform="translate(0 0)"><path d="M152.35,52.262a9.837,9.837,0,0,0-1.133-12.226,6.145,6.145,0,0,1-1.572-5.524,9.836,9.836,0,0,0-5.473-10.991,6.146,6.146,0,0,1-3.461-4.583,9.836,9.836,0,0,0-9.074-8.272,6.145,6.145,0,0,1-4.883-3.023,9.837,9.837,0,0,0-11.449-4.435,6.146,6.146,0,0,1-5.645-1.055,9.837,9.837,0,0,0-12.278,0,6.144,6.144,0,0,1-5.645,1.055A9.837,9.837,0,0,0,80.287,7.643,6.145,6.145,0,0,1,75.4,10.666a9.837,9.837,0,0,0-9.074,8.272,6.145,6.145,0,0,1-3.461,4.583A9.837,9.837,0,0,0,57.4,34.513a6.146,6.146,0,0,1-1.572,5.524,9.837,9.837,0,0,0-1.133,12.226,6.145,6.145,0,0,1,.53,5.719,9.837,9.837,0,0,0,3.36,11.81,6.145,6.145,0,0,1,2.56,5.141,9.838,9.838,0,0,0,7.4,9.8,6.143,6.143,0,0,1,3.285,2.145l-10.273,24.8a4.446,4.446,0,0,0,5.412,5.952l11.247-3.452a.719.719,0,0,1,.844.35l5.512,10.393a4.446,4.446,0,0,0,8.035-.382l10.707-25.849q.211-.007.421,0l10.707,25.849a4.446,4.446,0,0,0,8.035.382l5.512-10.394a.718.718,0,0,1,.844-.35l11.247,3.452a4.446,4.446,0,0,0,5.412-5.952l-10.273-24.8a6.142,6.142,0,0,1,3.285-2.145,9.838,9.838,0,0,0,7.4-9.8,6.144,6.144,0,0,1,2.56-5.141,9.837,9.837,0,0,0,3.36-11.81,6.15,6.15,0,0,1,.531-5.719ZM89.158,123.111a.715.715,0,0,1-1.3.062L82.35,112.779a4.452,4.452,0,0,0-5.232-2.167l-11.247,3.452A.716.716,0,0,1,65,113.1l9.114-22a9.833,9.833,0,0,0,9.113,3.964,6.147,6.147,0,0,1,5.355,2.075,9.8,9.8,0,0,0,10.075,3.046Zm52.013-9.047-11.247-3.452a4.452,4.452,0,0,0-5.232,2.167l-5.512,10.393a.716.716,0,0,1-1.3-.062l-9.5-22.923a9.831,9.831,0,0,0,10.073-3.05,6.143,6.143,0,0,1,5.355-2.075A9.827,9.827,0,0,0,132.93,91.1l9.115,22A.716.716,0,0,1,141.171,114.063Zm8.057-63.839a9.871,9.871,0,0,0-.851,9.186,6.124,6.124,0,0,1-2.092,7.352,9.871,9.871,0,0,0-4.112,8.258,6.124,6.124,0,0,1-4.606,6.1,9.87,9.87,0,0,0-6.1,4.656l-.011.02a9.874,9.874,0,0,0-.712,1.54,6.121,6.121,0,0,1-6.5,4.024,9.871,9.871,0,0,0-8.6,3.333,6.124,6.124,0,0,1-7.514,1.4,9.865,9.865,0,0,0-2.713-.956l-.023,0a9.863,9.863,0,0,0-3.757,0l-.013,0a9.879,9.879,0,0,0-2.719.958,6.124,6.124,0,0,1-7.513-1.4,9.871,9.871,0,0,0-8.6-3.332,6.124,6.124,0,0,1-6.5-4.024,9.888,9.888,0,0,0-.711-1.538l-.013-.023a9.87,9.87,0,0,0-6.094-4.654,6.123,6.123,0,0,1-4.606-6.1,9.872,9.872,0,0,0-4.112-8.259,6.124,6.124,0,0,1-2.092-7.352,9.871,9.871,0,0,0-.851-9.186,6.123,6.123,0,0,1,.706-7.611,9.872,9.872,0,0,0,2.525-8.873A6.124,6.124,0,0,1,64.451,26.9a9.872,9.872,0,0,0,5.56-7.362,6.123,6.123,0,0,1,5.649-5.149A9.871,9.871,0,0,0,83.5,9.529a6.124,6.124,0,0,1,7.127-2.761,9.871,9.871,0,0,0,9.069-1.7,6.123,6.123,0,0,1,7.644,0,9.871,9.871,0,0,0,9.069,1.7,6.124,6.124,0,0,1,7.127,2.761,9.872,9.872,0,0,0,7.844,4.857,6.124,6.124,0,0,1,5.649,5.149,9.873,9.873,0,0,0,5.56,7.362A6.123,6.123,0,0,1,146,33.74a9.871,9.871,0,0,0,2.525,8.873,6.125,6.125,0,0,1,.7,7.611Z" transform="translate(-53.074 -0.001)" fill="#3e4a5a"/><path d="M109,87.232a1.865,1.865,0,0,0,2.078-1.623,33.492,33.492,0,0,1,66.472.016,1.864,1.864,0,0,0,3.7-.454,37.22,37.22,0,0,0-73.874-.017A1.864,1.864,0,0,0,109,87.232Z" transform="translate(-93.869 -39.469)" fill="#3e4a5a"/><path d="M179.629,212.218a1.867,1.867,0,0,0-2.077,1.624,33.492,33.492,0,0,1-66.473.015,1.864,1.864,0,1,0-3.7.455,37.22,37.22,0,0,0,73.874-.017A1.864,1.864,0,0,0,179.629,212.218Z" transform="translate(-93.868 -159.451)" fill="#3e4a5a"/><path d="M202.207,113.468a3.575,3.575,0,0,0-3.3-2.491l-14.618-.524-5.016-13.74a3.608,3.608,0,0,0-6.779,0l-5.016,13.74-14.618.524a3.609,3.609,0,0,0-2.1,6.448l11.518,9.016-4.018,14.065a3.609,3.609,0,0,0,5.485,3.985l12.134-8.168,12.134,8.168a3.609,3.609,0,0,0,5.485-3.985l-4.018-14.064L201,117.425A3.574,3.574,0,0,0,202.207,113.468ZM187.12,123.555a3.594,3.594,0,0,0-1.245,3.833l3.95,13.826L177.9,133.185a3.594,3.594,0,0,0-4.031,0l-11.929,8.029,3.95-13.825a3.594,3.594,0,0,0-1.245-3.833l-11.323-8.863,14.37-.516a3.594,3.594,0,0,0,3.26-2.369L175.881,98.3l4.931,13.507a3.594,3.594,0,0,0,3.26,2.369l14.37.516Z" transform="translate(-125.434 -70.888)" fill="#3e4a5a"/></g></svg>