<svg xmlns="http://www.w3.org/2000/svg" width="127" height="127" viewBox="0 0 127 127"><g transform="translate(-6313.8 -3534.8)"><g transform="translate(6313.8 3534.8)"><path d="M19.05,0h88.9A19.05,19.05,0,0,1,127,19.05v88.9A19.05,19.05,0,0,1,107.95,127H19.05A19.05,19.05,0,0,1,0,107.95V19.05A19.05,19.05,0,0,1,19.05,0Z" fill="#5568fe"/><g transform="translate(37.738 31.421)"><g transform="translate(0 0)"><path d="M103.764,26.686a5.023,5.023,0,0,0-.578-6.243,3.138,3.138,0,0,1-.8-2.82,5.022,5.022,0,0,0-2.794-5.612,3.138,3.138,0,0,1-1.767-2.34,5.022,5.022,0,0,0-4.633-4.224A3.138,3.138,0,0,1,90.7,3.9a5.023,5.023,0,0,0-5.846-2.265A3.138,3.138,0,0,1,81.967,1.1a5.023,5.023,0,0,0-6.269,0,3.137,3.137,0,0,1-2.883.539A5.023,5.023,0,0,0,66.969,3.9a3.138,3.138,0,0,1-2.493,1.544A5.023,5.023,0,0,0,59.842,9.67a3.138,3.138,0,0,1-1.767,2.34,5.023,5.023,0,0,0-2.795,5.612,3.138,3.138,0,0,1-.8,2.821,5.023,5.023,0,0,0-.578,6.243,3.137,3.137,0,0,1,.271,2.92,5.023,5.023,0,0,0,1.716,6.03,3.138,3.138,0,0,1,1.307,2.625,5.023,5.023,0,0,0,3.778,5,3.137,3.137,0,0,1,1.677,1.1L57.4,57.023a2.27,2.27,0,0,0,2.763,3.039L65.909,58.3a.367.367,0,0,1,.431.179l2.815,5.307a2.27,2.27,0,0,0,4.1-.195l5.467-13.2q.108,0,.215,0l5.467,13.2a2.27,2.27,0,0,0,4.1.195l2.814-5.307a.367.367,0,0,1,.431-.178L97.5,60.062a2.27,2.27,0,0,0,2.763-3.039L95.015,44.359a3.136,3.136,0,0,1,1.677-1.1,5.023,5.023,0,0,0,3.778-5,3.137,3.137,0,0,1,1.307-2.625,5.023,5.023,0,0,0,1.716-6.03,3.14,3.14,0,0,1,.271-2.92ZM71.5,62.861a.365.365,0,0,1-.662.031l-2.815-5.307a2.273,2.273,0,0,0-2.671-1.106l-5.743,1.762a.365.365,0,0,1-.446-.49l4.654-11.235a5.021,5.021,0,0,0,4.653,2.024A3.139,3.139,0,0,1,71.2,49.6a5,5,0,0,0,5.144,1.555Zm26.558-4.62-5.743-1.762a2.273,2.273,0,0,0-2.671,1.106l-2.814,5.307a.366.366,0,0,1-.662-.031l-4.848-11.7A5.02,5.02,0,0,0,86.461,49.6,3.137,3.137,0,0,1,89.2,48.54a5.018,5.018,0,0,0,4.653-2.024L98.5,57.75A.366.366,0,0,1,98.056,58.241Zm4.114-32.6a5.04,5.04,0,0,0-.435,4.691,3.127,3.127,0,0,1-1.068,3.754,5.04,5.04,0,0,0-2.1,4.217,3.127,3.127,0,0,1-2.352,3.115A5.04,5.04,0,0,0,93.1,43.8l-.005.01a5.043,5.043,0,0,0-.364.786,3.125,3.125,0,0,1-3.318,2.055,5.04,5.04,0,0,0-4.393,1.7,3.127,3.127,0,0,1-3.836.717,5.037,5.037,0,0,0-1.385-.488l-.012,0a5.036,5.036,0,0,0-1.918,0h-.007a5.044,5.044,0,0,0-1.388.489,3.127,3.127,0,0,1-3.836-.717,5.04,5.04,0,0,0-4.393-1.7,3.127,3.127,0,0,1-3.318-2.055,5.05,5.05,0,0,0-.363-.785L64.56,43.8a5.039,5.039,0,0,0-3.112-2.376A3.127,3.127,0,0,1,59.1,38.306,5.041,5.041,0,0,0,57,34.089a3.127,3.127,0,0,1-1.068-3.754,5.04,5.04,0,0,0-.435-4.691,3.127,3.127,0,0,1,.36-3.886,5.041,5.041,0,0,0,1.289-4.531,3.127,3.127,0,0,1,1.74-3.494,5.04,5.04,0,0,0,2.839-3.759,3.127,3.127,0,0,1,2.884-2.629,5.04,5.04,0,0,0,4.005-2.48,3.127,3.127,0,0,1,3.639-1.41,5.04,5.04,0,0,0,4.631-.866,3.127,3.127,0,0,1,3.9,0,5.04,5.04,0,0,0,4.63.866,3.127,3.127,0,0,1,3.639,1.41,5.04,5.04,0,0,0,4.005,2.48,3.127,3.127,0,0,1,2.884,2.629,5.041,5.041,0,0,0,2.839,3.759,3.126,3.126,0,0,1,1.74,3.494,5.04,5.04,0,0,0,1.289,4.531,3.127,3.127,0,0,1,.36,3.886Z" transform="translate(-53.074 -0.001)" fill="#fff"/><path d="M108.2,70.247a.952.952,0,0,0,1.061-.828,17.1,17.1,0,0,1,33.94.008.952.952,0,0,0,1.89-.232,19,19,0,0,0-37.72-.009A.952.952,0,0,0,108.2,70.247Z" transform="translate(-100.475 -45.86)" fill="#fff"/><path d="M144.263,212.211a.953.953,0,0,0-1.061.829,17.1,17.1,0,0,1-33.941.008.952.952,0,1,0-1.89.232,19,19,0,0,0,37.72-.009A.952.952,0,0,0,144.263,212.211Z" transform="translate(-100.473 -185.269)" fill="#fff"/><path d="M176.351,104.107a1.825,1.825,0,0,0-1.686-1.272l-7.464-.268-2.561-7.016a1.842,1.842,0,0,0-3.461,0l-2.561,7.016-7.464.268a1.843,1.843,0,0,0-1.07,3.292l5.881,4.6-2.052,7.181a1.843,1.843,0,0,0,2.8,2.035l6.2-4.171,6.2,4.17a1.843,1.843,0,0,0,2.8-2.035l-2.052-7.181,5.881-4.6A1.825,1.825,0,0,0,176.351,104.107Zm-7.7,5.15a1.835,1.835,0,0,0-.636,1.957l2.017,7.059-6.09-4.1a1.835,1.835,0,0,0-2.058,0l-6.091,4.1,2.017-7.059a1.835,1.835,0,0,0-.636-1.957l-5.781-4.526,7.337-.263a1.835,1.835,0,0,0,1.665-1.21l2.518-6.9,2.518,6.9a1.835,1.835,0,0,0,1.665,1.209l7.337.263Z" transform="translate(-137.15 -82.366)" fill="#fff"/></g></g></g></g></svg>