<svg xmlns="http://www.w3.org/2000/svg" xmlns:xlink="http://www.w3.org/1999/xlink" width="26.706" height="26.706" viewBox="0 0 26.706 26.706"><defs><linearGradient id="a" x1="0.463" y1="0.914" x2="0.463" y2="-0.169" gradientUnits="objectBoundingBox"><stop offset="0" stop-color="#ffcf95"/><stop offset="0.427" stop-color="#ffc954"/><stop offset="1" stop-color="#ffc200"/></linearGradient></defs><g transform="translate(0 0)"><path d="M13.405,0A13.4,13.4,0,0,0,0,13.3,13.489,13.489,0,0,0,13.405,26.706,13.353,13.353,0,0,0,13.405,0Z" transform="translate(0 0)" fill="#fedb41"/><path d="M270.3,13.3A13.4,13.4,0,0,1,257,26.706V0A13.31,13.31,0,0,1,270.3,13.3Z" transform="translate(-243.595 0)" fill="#fc3"/><path d="M70.275,60A10.223,10.223,0,1,0,80.447,70.171,10.281,10.281,0,0,0,70.275,60Z" transform="translate(-56.87 -56.87)" fill="#fea832"/><path d="M267.171,70.171A10.281,10.281,0,0,1,257,80.447V60A10.191,10.191,0,0,1,267.171,70.171Z" transform="translate(-243.595 -56.87)" fill="#fe9923"/></g><g transform="translate(6.597 6.9)"><path d="M7.253,11.81l1.787,3.621,4,.581a.554.554,0,0,1,.307.946l-2.892,2.819.683,3.98a.554.554,0,0,1-.8.585L6.756,22.462,3.182,24.341a.554.554,0,0,1-.8-.585l.683-3.98L.168,16.958a.554.554,0,0,1,.307-.946l4-.581L6.259,11.81A.554.554,0,0,1,7.253,11.81Z" transform="translate(0 -11.501)" fill="url(#a)"/></g></svg>