<svg xmlns="http://www.w3.org/2000/svg" width="10.497" height="13.738" viewBox="0 0 10.497 13.738"><g transform="translate(-65.226 -0.116)"><path d="M305.456,59.3a.209.209,0,0,0,.091-.282l-1.018-2a.21.21,0,0,0-.373,0l-1.018,2a.209.209,0,1,0,.373.19l.314-.616h1.034l.314.616A.209.209,0,0,0,305.456,59.3Zm-1.416-1.126.3-.595.3.595Z" transform="translate(-231.326 -55.313)"/><path d="M360.175,32.381h.192v.192a.209.209,0,0,0,.419,0v-.192h.192a.209.209,0,1,0,0-.419h-.192V31.77a.209.209,0,0,0-.419,0v.192h-.192a.209.209,0,0,0,0,.419Z" transform="translate(-286.588 -30.67)"/><path d="M105.106,169.33a.6.6,0,0,0-.852,0l-.217.217h0a.6.6,0,0,0-.852.852l.427.427a.6.6,0,0,0,.852,0l.643-.643A.6.6,0,0,0,105.106,169.33Zm-.3.556-.643.643a.183.183,0,0,1-.259,0l-.427-.427a.183.183,0,0,1,.259-.259l.149.15a.209.209,0,0,0,.3,0l.365-.365a.183.183,0,0,1,.259.259Z" transform="translate(-36.805 -164.551)"/><path d="M105.106,243.684a.6.6,0,0,0-.852,0l-.217.217h0a.6.6,0,0,0-.852.852l.427.427a.6.6,0,0,0,.852,0l.643-.643A.6.6,0,0,0,105.106,243.684Zm-.3.556-.643.643a.183.183,0,0,1-.259,0l-.427-.427a.183.183,0,0,1,.259-.259l.149.149a.209.209,0,0,0,.3,0l.365-.365a.183.183,0,0,1,.259.259Z" transform="translate(-36.805 -236.887)"/><path d="M105.106,318.039a.6.6,0,0,0-.852,0l-.217.217h0a.6.6,0,0,0-.852.852l.427.427a.6.6,0,0,0,.852,0l.643-.642A.6.6,0,0,0,105.106,318.039Zm-.3.556-.643.643a.183.183,0,0,1-.259,0l-.427-.427a.183.183,0,0,1,.259-.259l.149.15a.209.209,0,0,0,.3,0l.365-.365a.183.183,0,0,1,.259.259Z" transform="translate(-36.805 -309.224)"/><path d="M205.071,254.758a.471.471,0,0,0-.47-.47h-3.161a.471.471,0,0,0-.47.47v.3a.471.471,0,0,0,.47.47H204.6a.471.471,0,0,0,.47-.47v-.3Zm-.419.3a.052.052,0,0,1-.052.052h-3.161a.052.052,0,0,1-.052-.052v-.3a.052.052,0,0,1,.052-.052H204.6a.052.052,0,0,1,.052.052v.3Z" transform="translate(-132.031 -247.366)"/><path d="M205.071,329.113a.471.471,0,0,0-.47-.47h-3.161a.471.471,0,0,0-.47.47v.3a.471.471,0,0,0,.47.47H204.6a.471.471,0,0,0,.47-.47v-.3Zm-.419.3a.052.052,0,0,1-.052.052h-3.161a.052.052,0,0,1-.052-.052v-.3a.052.052,0,0,1,.052-.052H204.6a.052.052,0,0,1,.052.052v.3Z" transform="translate(-132.031 -319.7)"/><path d="M104.255,392.393l-.217.217h0a.6.6,0,0,0-.852.852l.427.427a.6.6,0,0,0,.852,0l.643-.643a.6.6,0,0,0-.852-.852Zm.556.556-.643.643a.183.183,0,0,1-.259,0l-.427-.427a.183.183,0,0,1,.259-.259l.149.149a.209.209,0,0,0,.3,0l.365-.365a.183.183,0,0,1,.259.259Z" transform="translate(-36.805 -381.602)"/><path d="M204.6,403.823h-1.115a.209.209,0,0,0,0,.419H204.6a.471.471,0,0,0,.47-.47v-.3a.471.471,0,0,0-.47-.47h-3.161a.471.471,0,0,0-.47.47v.3a.471.471,0,0,0,.47.47h1.068a.209.209,0,0,0,0-.419h-1.068a.052.052,0,0,1-.052-.052v-.3a.052.052,0,0,1,.052-.052H204.6a.052.052,0,0,1,.052.052v.3A.052.052,0,0,1,204.6,403.823Z" transform="translate(-132.031 -392.081)"/><path d="M73.748,9.488c.114,0,.206-.332.206-.443V4.861a2.516,2.516,0,0,0,1.681-2.353A2.542,2.542,0,0,0,73.065,0,2.59,2.59,0,0,0,71.06.941H67.137A.21.21,0,0,0,66.991,1L65.2,2.749a.2.2,0,0,0-.06.142V13.143a.6.6,0,0,0,.61.6h7.6a.6.6,0,0,0,.61-.6V8.824c0-.111-.092-.282-.206-.282s-.206.17-.206.282v4.319a.2.2,0,0,1-.2.193h-7.6a.2.2,0,0,1-.2-.193V3.092h1.182a.6.6,0,0,0,.61-.6V1.343h3.445A2.44,2.44,0,0,0,70.5,2.41,2.509,2.509,0,0,0,72.09,4.828H69.336a.458.458,0,0,0-.463.452v.293a.458.458,0,0,0,.463.452H72.45a.458.458,0,0,0,.463-.452V5.28a.442.442,0,0,0-.1-.276c.082.008.165.012.25.012a2.666,2.666,0,0,0,.477-.043V9.045C73.542,9.156,73.634,9.488,73.748,9.488ZM66.93,2.5a.2.2,0,0,1-.2.193h-.89L66.93,1.628ZM72.5,5.573a.05.05,0,0,1-.051.05H69.336a.05.05,0,0,1-.051-.05V5.28a.05.05,0,0,1,.051-.05H72.45a.05.05,0,0,1,.051.05v.293Zm.565-.96a2.134,2.134,0,0,1-2.158-2.105,2.158,2.158,0,0,1,4.315,0A2.134,2.134,0,0,1,73.065,4.613Z" transform="translate(0.088 0.116)"/></g></svg>