<svg xmlns="http://www.w3.org/2000/svg" width="23" height="23" viewBox="0 0 23 23"><g transform="translate(-0.36 0.041)"><rect width="23" height="23" transform="translate(0.36 -0.041)" fill="none"/><circle cx="3" cy="3" r="3" transform="translate(6.36 7.959)" fill="none" stroke="#000" stroke-linecap="round" stroke-linejoin="round" stroke-width="1"/><path d="M33.864,61.271a4.993,4.993,0,0,1,8.823,0h5.351a.681.681,0,0,0,.7-.664V48.664a.681.681,0,0,0-.7-.664H32.7a.681.681,0,0,0-.7.664V60.608a.681.681,0,0,0,.7.664Z" transform="translate(-28.938 -43.406)" fill="none" stroke="#000" stroke-linecap="round" stroke-linejoin="round" stroke-width="1"/><path d="M73.284,89.188H74.61V80H64v1.531" transform="translate(-57.875 -73.332)" fill="none" stroke="#000" stroke-linecap="round" stroke-linejoin="round" stroke-width="1"/></g></svg>